<svg width="100" height="100" viewBox="0 0 100 100" fill="none" xmlns="http://www.w3.org/2000/svg">
<circle cx="50" cy="50" r="50" fill="#009CC4"/>
<g clip-path="url(#clip0_102_302)">
<path d="M83.387 45.6342C84.8354 44.2225 85.3468 42.1505 84.7218 40.2268C84.0968 38.3033 82.465 36.9276 80.4635 36.6368L64.36 34.2968C63.3094 34.1441 62.4017 33.4847 61.9319 32.5327L59.3133 27.227C59.0628 26.7193 58.4483 26.5109 57.9404 26.7615C57.4328 27.012 57.2244 27.6267 57.4749 28.1344L60.0934 33.4401C60.862 34.9972 62.3468 36.0759 64.0652 36.3256L80.1687 38.6656C81.411 38.8461 82.3841 39.6666 82.772 40.8604C83.1599 42.0542 82.8548 43.2901 81.956 44.1663L70.3034 55.5247C69.06 56.7368 68.4928 58.4823 68.7864 60.1937L71.5371 76.2322C71.7493 77.4694 71.2696 78.6485 70.2542 79.3862C69.2386 80.124 67.969 80.216 66.858 79.6317L64.2642 78.2681V76.6026C64.2642 74.9308 62.904 73.5705 61.2321 73.5705H60.6407V68.9837C60.641 68.1349 61.2013 66.8066 61.8164 66.1969C64.5515 63.4854 66.0023 61.1815 65.8373 56.7793C65.7089 53.3529 65.092 50.2688 64.388 47.5721V44.8416C64.388 42.75 62.6863 41.0484 60.5948 41.0484C59.9624 41.0484 59.3661 41.2047 58.8412 41.4796C58.6328 39.3859 56.8614 37.7454 54.7137 37.7454C53.7781 37.7454 52.9141 38.057 52.2194 38.5815C51.539 37.2178 50.1303 36.2784 48.5055 36.2784C46.8522 36.2784 45.422 37.251 44.756 38.6538C44.0462 38.0861 43.1472 37.7454 42.1697 37.7454C39.8823 37.7454 38.0213 39.6062 38.0213 41.8937V48.3035C37.8292 48.4228 37.6447 48.5558 37.4707 48.7035C35.9682 49.9802 34.8897 52.3583 34.5233 54.0277C34.2711 55.1764 34.1454 56.2986 34.1494 57.3631C34.1656 61.6879 36.3989 64.7185 38.5813 67.1129C38.7491 67.297 38.8415 67.5336 38.8415 67.779V73.5703H38.7673C37.0955 73.5703 35.7352 74.9305 35.7352 76.6024V78.2681L33.1418 79.6316C32.0308 80.2158 30.7612 80.124 29.7456 79.3861C28.7301 78.6483 28.2505 77.4692 28.4627 76.2321L31.2135 60.1936C31.507 58.4821 30.9398 56.7367 29.6964 55.5245L18.0439 44.1663C17.145 43.2901 16.84 42.0542 17.2278 40.8604C17.6157 39.6667 18.5888 38.8463 19.8311 38.6656L35.9346 36.3256C37.653 36.0759 39.1378 34.9971 39.9064 33.4401L47.108 18.8478C47.6637 17.722 48.7448 17.0501 50 17.0501C51.2553 17.0501 52.3364 17.722 52.8917 18.8472L55.3791 23.8929C55.6295 24.4006 56.244 24.6097 56.7518 24.3589C57.2595 24.1087 57.4682 23.494 57.218 22.9863L54.7303 17.9403C53.8351 16.1266 52.0227 15 50 15C47.9774 15 46.165 16.1266 45.2699 17.9404L38.0681 32.5326C37.5982 33.4845 36.6905 34.144 35.6399 34.2967L19.5365 36.6368C17.5349 36.9276 15.9033 38.3031 15.2783 40.2268C14.6533 42.1505 15.1647 44.2225 16.6132 45.6343L28.2658 56.9927C29.026 57.7336 29.3727 58.8007 29.1933 59.8471L26.4423 75.8856C26.1003 77.879 26.9044 79.8558 28.5408 81.0448C30.1771 82.2336 32.3058 82.3875 34.0961 81.4463L35.7355 80.5845V81.9681C35.7355 83.64 37.0957 85.0003 38.7676 85.0003H43.0981C43.6642 85.0003 44.1232 84.5415 44.1232 83.9752C44.1232 83.409 43.6642 82.9502 43.0981 82.9502H38.7676C38.2262 82.9502 37.7856 82.5097 37.7856 81.9681V76.6026C37.7856 76.0611 38.2261 75.6206 38.7676 75.6206H61.2324C61.7737 75.6206 62.2144 76.0611 62.2144 76.6026V81.9681C62.2144 82.5097 61.7739 82.9502 61.2324 82.9502H47.8361C47.27 82.9502 46.811 83.409 46.811 83.9752C46.811 84.5415 47.27 85.0003 47.8361 85.0003H61.2324C62.9042 85.0003 64.2645 83.6401 64.2645 81.9681V80.5843L65.9043 81.4465C66.6831 81.8558 67.5255 82.0581 68.364 82.0581C69.4531 82.0579 70.5351 81.7167 71.4596 81.0451C73.096 79.8561 73.9 77.8793 73.5581 75.8859L70.8069 59.8471C70.6275 58.8007 70.9742 57.7336 71.7344 56.9927L83.387 45.6342ZM58.862 44.6549C58.9555 43.7813 59.6967 43.0985 60.5948 43.0985C61.556 43.0985 62.3379 43.8805 62.3379 44.8416V51.2422C62.3379 52.2033 61.5559 52.9854 60.5948 52.9854C59.6337 52.9854 58.8516 52.2033 58.8516 51.2422L58.862 44.6549ZM52.6539 41.5001C52.8388 40.5308 53.6915 39.7955 54.7137 39.7955C55.8706 39.7955 56.8119 40.7368 56.8119 41.8937L56.8015 49.3194C56.6985 50.3808 55.8017 51.2134 54.7137 51.2134C54.3351 51.2134 53.9814 51.1101 53.6748 50.9333C53.7954 50.4237 53.8251 49.8749 53.7586 49.2868C53.681 48.5998 53.2435 48.0359 52.6491 47.7721C52.6503 47.7305 52.6539 41.5001 52.6539 41.5001ZM46.4073 40.4266C46.4073 39.2697 47.3486 38.3284 48.5055 38.3284C49.6625 38.3284 50.6037 39.2697 50.6037 40.4266L50.5655 47.6101H46.4074V40.4266H46.4073ZM40.0715 41.8936C40.0715 40.7366 41.0127 39.7953 42.1697 39.7953C43.3266 39.7953 44.2679 40.7366 44.2679 41.8936V47.61H40.4477C40.3217 47.61 40.1964 47.6157 40.0716 47.626V41.8936H40.0715ZM58.5907 68.9835V73.5705H40.8918C40.8918 73.5705 40.8918 67.889 40.8918 67.7792C40.8918 67.0216 40.6094 66.2945 40.0966 65.7319C38.1772 63.6263 36.2131 60.9844 36.1996 57.3555C36.1962 56.4413 36.3059 55.4694 36.5259 54.4672C36.8227 53.1144 37.7201 51.1821 38.7979 50.2662C39.2583 49.8756 39.8442 49.6604 40.4479 49.6604H51.7351C51.8037 50.5765 51.4968 51.2153 50.7263 51.7766C49.0385 53.0063 46.3149 52.6975 44.8517 52.5319C44.6182 52.5054 44.4165 52.4826 44.2458 52.469C43.5265 52.4108 42.7153 52.5549 42.3742 53.2695C42.1445 53.7506 42.204 54.3118 42.5297 54.7347C42.9128 55.2322 43.4614 55.5096 43.9024 55.9367C44.229 56.253 44.5 56.6331 44.7325 57.0219C45.3717 58.0909 45.7264 59.3571 45.5768 60.6051C45.5095 61.1671 45.9106 61.6775 46.4727 61.7448C47.0342 61.8122 47.5452 61.4111 47.6123 60.8488C47.9272 58.2189 46.657 55.8829 45.5218 54.6626C47.2895 54.8202 49.975 54.8603 51.9336 53.4333C52.2269 53.2196 52.4836 52.9889 52.7078 52.7433C53.3028 53.0737 53.9864 53.2632 54.7138 53.2632C55.5729 53.2632 56.3719 53.0007 57.0348 52.5516C57.5692 53.9998 58.9633 55.0354 60.5949 55.0354C61.7685 55.0354 62.8193 54.4995 63.5156 53.6597C63.65 54.69 63.7476 55.7548 63.789 56.8563C63.9136 60.1802 63.1156 62.0226 60.3734 64.741C59.3741 65.7315 58.5911 67.5946 58.5907 68.9835Z" fill="white"/>
</g>
<defs>
<clipPath id="clip0_102_302">
<rect width="70" height="70" fill="white" transform="translate(15 15)"/>
</clipPath>
</defs>
</svg>
