<svg width="100" height="100" viewBox="0 0 100 100" fill="none" xmlns="http://www.w3.org/2000/svg">
<circle cx="50" cy="50" r="50" fill="#009CC4"/>
<path d="M21.5625 67.3899V68.5938C21.5641 70.0436 22.1408 71.4337 23.1661 72.4589C24.1913 73.4842 25.5814 74.0609 27.0312 74.0625H28.125V81.7188C28.125 82.0088 28.2402 82.287 28.4454 82.4921C28.6505 82.6973 28.9287 82.8125 29.2188 82.8125H34.6875C34.9776 82.8125 35.2558 82.6973 35.4609 82.4921C35.666 82.287 35.7812 82.0088 35.7812 81.7188V77.7635L45.0183 67.5H59.8438C61.2936 67.4984 62.6837 66.9217 63.7089 65.8964C64.7342 64.8712 65.3109 63.4811 65.3125 62.0312V59.5246C65.3125 54.6779 63.3871 50.0296 59.96 46.6025C56.5328 43.1753 51.8846 41.25 47.0379 41.25H35.4621C33.0623 41.25 30.6859 41.7227 28.4687 42.641C26.2516 43.5594 24.237 44.9055 22.54 46.6025C20.8431 48.2994 19.497 50.314 18.5786 52.5312C17.6602 54.7484 17.1875 57.1247 17.1875 59.5246V62.0312C17.1891 63.2914 17.6252 64.5124 18.4221 65.4886C19.2191 66.4647 20.3282 67.1362 21.5625 67.3899ZM23.75 68.5938V67.5H34.6875V69.2345L32.047 71.875H27.0312C26.1613 71.874 25.3273 71.528 24.7121 70.9129C24.097 70.2977 23.751 69.4637 23.75 68.5938ZM33.8745 76.6121C33.6938 76.8129 33.5937 77.0736 33.5938 77.3438V80.625H30.3125V74.0625H32.5C32.7901 74.0625 33.0683 73.9473 33.2734 73.7421L36.5547 70.4609C36.7598 70.2558 36.875 69.9776 36.875 69.6875V67.5H42.0754L33.8745 76.6121ZM24.4354 47.8125H27.672L30.6328 50.7734L32.1797 49.2266L28.8984 45.9454C28.6933 45.7402 28.4151 45.625 28.125 45.625H27.3666C29.824 44.1923 32.6176 43.4375 35.4621 43.4375H35.7812V46.7188C35.7812 47.0088 35.8965 47.287 36.1016 47.4921L40.4766 51.8671L42.0234 50.3204L37.9688 46.2657V43.4375H47.0379C50.0255 43.4369 52.9542 44.2689 55.4953 45.8401C55.8014 46.0292 56.1001 46.2282 56.3913 46.4369L53.2813 49.547L49.6797 45.9454C49.4746 45.7402 49.1964 45.625 48.9062 45.625H43.4375V47.8125H48.4532L50.6407 50H45.625V52.1875H53.2812C53.5714 52.1875 53.8496 52.0723 54.0547 51.8671L58.0879 47.8339C59.6789 49.3372 60.9463 51.1494 61.8124 53.1597C62.6785 55.1699 63.1252 57.3357 63.125 59.5246V62.0312C63.124 62.9012 62.778 63.7352 62.1628 64.3503C61.5477 64.9655 60.7137 65.3115 59.8438 65.3125H58.1093L56.2215 63.4246L59.2392 61.9158C59.4209 61.8249 59.5737 61.6853 59.6804 61.5125C59.7872 61.3397 59.8438 61.1406 59.8438 60.9375V55.4688H57.6562V60.2615L54.591 61.7942L52.9609 60.1641C52.7558 59.959 52.4776 59.8438 52.1875 59.8438H47.8125V62.0312H51.7345L55.0157 65.3125H44.5312V59.8438C44.5313 59.5537 44.416 59.2755 44.2109 59.0704L40.9297 55.7891L39.3828 57.3359L42.3438 60.2968V65.3125H26.7756L28.7442 62.0312H35.7812V59.8438H32.5V57.0882L37.5582 53.0416L36.1918 51.3334L30.7231 55.7084C30.5949 55.8109 30.4915 55.9408 30.4205 56.0887C30.3494 56.2365 30.3125 56.3985 30.3125 56.5625V59.8438H28.125C27.9361 59.8438 27.7505 59.8927 27.5861 59.9857C27.4217 60.0788 27.2843 60.2128 27.1871 60.3747L24.2244 65.3125H22.6562C21.7863 65.3115 20.9523 64.9655 20.3372 64.3503C19.722 63.7352 19.376 62.9012 19.375 62.0312V59.5246C19.375 59.2663 19.3829 59.008 19.3955 58.75H23.75C23.9198 58.75 24.0873 58.7105 24.2392 58.6345C24.391 58.5586 24.5232 58.4483 24.6251 58.3125L27.9063 53.9375L26.1562 52.625L23.2031 56.5625H19.6538C20.2772 53.2118 21.9521 50.1469 24.4354 47.8125Z" fill="white"/>
<path d="M82.8125 34.6875H79.5143C79.4462 34.6875 79.38 34.665 79.3259 34.6235C79.2719 34.582 79.233 34.5238 79.2154 34.458C79.1978 34.3922 79.2023 34.3224 79.2284 34.2595C79.2545 34.1965 79.3006 34.1439 79.3596 34.1098L82.2158 32.4607C82.3402 32.3889 82.4492 32.2933 82.5367 32.1794C82.6241 32.0654 82.6883 31.9354 82.7254 31.7966C82.7626 31.6579 82.7721 31.5132 82.7533 31.3708C82.7346 31.2284 82.6879 31.091 82.6161 30.9667L79.3349 25.2833C79.2631 25.159 79.1674 25.0499 79.0535 24.9625C78.9396 24.875 78.8095 24.8109 78.6708 24.7737C78.532 24.7365 78.3873 24.7271 78.2449 24.7458C78.1025 24.7646 77.9652 24.8112 77.8408 24.883L74.9846 26.5321C74.9255 26.5662 74.8569 26.5799 74.7893 26.571C74.7218 26.5621 74.659 26.5311 74.6108 26.4829C74.5626 26.4347 74.5317 26.372 74.5228 26.3044C74.5139 26.2368 74.5276 26.1682 74.5617 26.1092L76.2108 23.2529C76.3558 23.0017 76.3951 22.7031 76.32 22.423C76.2449 22.1428 76.0616 21.9039 75.8103 21.7588L70.1272 18.4776C70.0028 18.4058 69.8655 18.3591 69.7231 18.3404C69.5807 18.3216 69.436 18.3311 69.2972 18.3683C69.1585 18.4055 69.0284 18.4696 68.9145 18.557C68.8005 18.6445 68.7049 18.7535 68.6331 18.8779L66.9838 21.7343C66.9498 21.7933 66.8972 21.8394 66.8342 21.8655C66.7712 21.8916 66.7014 21.8961 66.6356 21.8785C66.5698 21.8608 66.5117 21.822 66.4702 21.7679C66.4287 21.7138 66.4062 21.6476 66.4062 21.5795V18.2812C66.4062 17.9912 66.291 17.713 66.0859 17.5079C65.8808 17.3027 65.6026 17.1875 65.3125 17.1875H58.75C58.4599 17.1875 58.1817 17.3027 57.9766 17.5079C57.7715 17.713 57.6563 17.9912 57.6562 18.2812V21.5795C57.6562 21.6476 57.6338 21.7139 57.5923 21.7679C57.5508 21.822 57.4926 21.8609 57.4268 21.8785C57.3609 21.8961 57.2911 21.8915 57.2282 21.8655C57.1652 21.8394 57.1126 21.7932 57.0785 21.7342L55.4294 18.8779C55.3576 18.7535 55.262 18.6445 55.148 18.5571C55.0341 18.4696 54.904 18.4055 54.7653 18.3683C54.6265 18.3311 54.4818 18.3216 54.3394 18.3404C54.197 18.3591 54.0597 18.4058 53.9353 18.4776L48.2522 21.7588C48.0009 21.9039 47.8176 22.1428 47.7425 22.423C47.6675 22.7031 47.7067 23.0017 47.8518 23.2529L49.5009 26.1093C49.535 26.1683 49.5486 26.2369 49.5397 26.3045C49.5308 26.372 49.4998 26.4347 49.4516 26.4829C49.4034 26.5311 49.3407 26.562 49.2731 26.5709C49.2056 26.5798 49.137 26.5662 49.0779 26.5321L46.2217 24.883C46.0973 24.8112 45.96 24.7646 45.8176 24.7458C45.6752 24.7271 45.5305 24.7365 45.3917 24.7737C45.253 24.8109 45.123 24.875 45.009 24.9625C44.8951 25.0499 44.7995 25.1589 44.7276 25.2833L41.4464 30.9667C41.3746 31.091 41.3279 31.2283 41.3092 31.3708C41.2904 31.5132 41.2999 31.6579 41.3371 31.7966C41.3742 31.9353 41.4384 32.0654 41.5258 32.1794C41.6133 32.2933 41.7223 32.3889 41.8467 32.4607L44.7029 34.1098C44.762 34.1439 44.8081 34.1965 44.8342 34.2595C44.8602 34.3224 44.8648 34.3922 44.8472 34.458C44.8295 34.5239 44.7907 34.582 44.7366 34.6235C44.6826 34.665 44.6163 34.6875 44.5482 34.6875H41.25C40.9599 34.6875 40.6817 34.8027 40.4766 35.0079C40.2715 35.213 40.1563 35.4912 40.1562 35.7812V39.0625H42.3438V36.875H44.5482C45.0979 36.875 45.6322 36.6936 46.0683 36.359C46.5044 36.0244 46.8179 35.5552 46.9602 35.0242C47.1024 34.4933 47.0655 33.9302 46.8552 33.4223C46.6448 32.9145 46.2727 32.4903 45.7967 32.2154L43.8876 31.1132L46.0751 27.3243L47.9842 28.4265C48.4603 28.7014 49.0137 28.8115 49.5587 28.7397C50.1037 28.668 50.6098 28.4184 50.9985 28.0297C51.3872 27.641 51.6367 27.1349 51.7085 26.5899C51.7803 26.0449 51.6702 25.4915 51.3954 25.0154L50.2931 23.1064L54.0819 20.9189L55.1841 22.8278C55.4589 23.3039 55.8831 23.676 56.391 23.8864C56.8988 24.0968 57.4619 24.1338 57.9929 23.9915C58.5239 23.8492 58.9931 23.5357 59.3277 23.0996C59.6624 22.6635 59.8438 22.1292 59.8438 21.5795V19.375H64.2188V21.5795C64.2187 22.1291 64.4001 22.6635 64.7347 23.0996C65.0694 23.5357 65.5385 23.8492 66.0695 23.9914C66.6005 24.1337 67.1635 24.0968 67.6714 23.8864C68.1792 23.6761 68.6034 23.304 68.8783 22.8279L69.9806 20.9189L73.7694 23.1064L72.6673 25.0154C72.3924 25.4914 72.2823 26.0449 72.354 26.5899C72.4257 27.1349 72.6753 27.641 73.064 28.0297C73.4527 28.4184 73.9588 28.668 74.5038 28.7398C75.0488 28.8115 75.6022 28.7014 76.0783 28.4265L77.9874 27.3243L80.1749 31.1132L78.2658 32.2154C77.7898 32.4903 77.4177 32.9145 77.2074 33.4223C76.997 33.9302 76.9601 34.4932 77.1024 35.0242C77.2446 35.5551 77.5581 36.0243 77.9942 36.359C78.4303 36.6936 78.9646 36.875 79.5143 36.875H81.7188V41.25H78.4375C78.1967 41.25 77.9627 41.3294 77.7716 41.476C77.5806 41.6226 77.4433 41.8281 77.381 42.0607L77.1024 43.1006C76.9606 43.6316 76.9978 44.1945 77.2081 44.7023C77.4184 45.21 77.7901 45.6343 78.2658 45.9096L80.1749 47.0118L77.9874 50.8007L76.0783 49.6985C75.6022 49.4236 75.0488 49.3135 74.5038 49.3853C73.9588 49.457 73.4527 49.7066 73.064 50.0953C72.6754 50.484 72.4258 50.9901 72.354 51.5351C72.2822 52.0801 72.3923 52.6335 72.6671 53.1096L73.7694 55.0186L69.9806 57.2061L69.5409 56.4447L67.6466 57.5384L68.6331 59.2471C68.7049 59.3715 68.8005 59.4806 68.9144 59.5681C69.0284 59.6556 69.1584 59.7197 69.2972 59.7569C69.4359 59.7941 69.5807 59.8035 69.7231 59.7848C69.8655 59.766 70.0028 59.7193 70.1272 59.6474L75.8103 56.3662C76.0616 56.2211 76.2449 55.9822 76.32 55.702C76.3951 55.4218 76.3558 55.1233 76.2108 54.8721L74.5616 52.0157C74.5275 51.9567 74.5139 51.8881 74.5228 51.8205C74.5317 51.753 74.5627 51.6902 74.6109 51.6421C74.6591 51.5939 74.7218 51.563 74.7894 51.5541C74.8569 51.5452 74.9255 51.5588 74.9846 51.5929L77.8408 53.242C77.9652 53.3138 78.1025 53.3604 78.2449 53.3792C78.3873 53.3979 78.532 53.3885 78.6708 53.3513C78.8095 53.3141 78.9396 53.25 79.0535 53.1625C79.1674 53.0751 79.2631 52.966 79.3349 52.8417L82.6161 47.1583C82.6879 47.034 82.7346 46.8966 82.7533 46.7542C82.7721 46.6118 82.7626 46.4671 82.7254 46.3284C82.6883 46.1896 82.6241 46.0596 82.5367 45.9456C82.4492 45.8317 82.3402 45.7361 82.2158 45.6643L79.3596 44.0152C79.3006 43.981 79.2545 43.9284 79.2284 43.8655C79.2024 43.8025 79.1978 43.7328 79.2154 43.6669L79.2768 43.4375H82.8125C83.1026 43.4375 83.3808 43.3223 83.5859 43.1171C83.791 42.912 83.9062 42.6338 83.9062 42.3438V35.7812C83.9062 35.4912 83.791 35.213 83.5859 35.0079C83.3808 34.8027 83.1026 34.6875 82.8125 34.6875Z" fill="white"/>
<path d="M62.0313 31.4062C60.9182 31.407 59.8186 31.6503 58.8091 32.1193C57.7996 32.5882 56.9043 33.2714 56.1857 34.1214C55.4671 34.9715 54.9423 35.9679 54.6479 37.0413C54.3535 38.1148 54.2965 39.2395 54.4809 40.3372L56.6382 39.9753C56.5878 39.6736 56.5625 39.3683 56.5625 39.0625C56.5627 38.02 56.8609 36.9992 57.422 36.1205C57.983 35.2418 58.7836 34.5418 59.7293 34.1029C60.6749 33.6641 61.7264 33.5047 62.7596 33.6436C63.7929 33.7824 64.7649 34.2137 65.5612 34.8867C66.3575 35.5596 66.9448 36.4461 67.254 37.4418C67.5632 38.4374 67.5813 39.5007 67.3063 40.5063C67.0312 41.5119 66.4745 42.418 65.7016 43.1177C64.9288 43.8174 63.972 44.2816 62.9441 44.4556L63.3059 46.6129C65.199 46.2932 66.9029 45.2739 68.0799 43.7571C69.2569 42.2403 69.8211 40.3367 69.6607 38.4235C69.5004 36.5103 68.6271 34.7272 67.214 33.4275C65.8009 32.1278 63.9512 31.4064 62.0313 31.4062Z" fill="white"/>
</svg>
