<svg width="100" height="100" viewBox="0 0 100 100" fill="none" xmlns="http://www.w3.org/2000/svg">
<circle cx="50" cy="50" r="50" fill="#009CC4"/>
<g clip-path="url(#clip0_102_269)">
<path d="M15.8717 51.1283L16.2077 51.2158C16.9149 68.905 31.093 83.0831 48.7822 83.7903L48.8697 84.1263C49.0031 84.6409 49.4675 85.0002 49.999 85.0002C50.5306 85.0002 50.995 84.6409 51.1284 84.1263L51.2159 83.7903C68.9051 83.0831 83.0832 68.905 83.7904 51.2158L84.1264 51.1283C84.6409 50.9949 85.0003 50.5305 85.0003 49.999C85.0003 49.4674 84.6409 49.003 84.1264 48.8696L83.7904 48.7821C83.0832 31.0929 68.9051 16.9148 51.2159 16.2076L51.1284 15.8716C50.995 15.3571 50.5306 14.9977 49.999 14.9977C49.4675 14.9977 49.0031 15.3571 48.8697 15.8716L48.7822 16.2076C31.093 16.9148 16.9149 31.0929 16.2077 48.7821L15.8717 48.8696C15.3571 49.003 14.9978 49.4674 14.9978 49.999C14.9978 50.5305 15.3571 50.9949 15.8717 51.1283ZM51.8307 81.4348L52.4572 79.0338C55.4377 78.7929 58.3625 78.0895 61.1267 76.949C61.1384 76.949 61.15 76.949 61.1605 76.942C61.171 76.935 61.1804 76.9268 61.1932 76.921C64.7193 75.4622 67.9224 73.3212 70.6187 70.621C73.315 67.9285 75.4532 64.7302 76.9105 61.2095C76.9187 61.1931 76.9315 61.1803 76.9385 61.1628C76.9455 61.1453 76.9385 61.1406 76.9455 61.129C78.0845 58.3645 78.7867 55.4397 79.0269 52.4595L81.4279 51.833C80.4324 67.7493 67.7469 80.4368 51.8307 81.4348ZM59.0769 28.082C59.3628 28.2006 59.6841 28.2007 59.9701 28.0823C60.256 27.9639 60.4833 27.7368 60.6017 27.4508L61.3227 25.7113C63.8039 26.8631 66.0926 28.3907 68.108 30.2403L67.8409 30.5075C67.5376 30.8004 67.416 31.2342 67.5227 31.6421C67.6295 32.05 67.948 32.3685 68.3559 32.4753C68.7639 32.582 69.1976 32.4604 69.4905 32.1571L69.7577 31.89C71.6072 33.9055 73.1348 36.1942 74.2867 38.6753L72.5472 39.3963C71.9518 39.6428 71.669 40.3252 71.9155 40.9206C72.1619 41.5159 72.8443 41.7988 73.4397 41.5523L75.1897 40.8278C75.9099 42.7924 76.3947 44.8355 76.634 46.9143L62.0332 43.1063L66.1924 35.3853C66.4357 34.9319 66.3532 34.3725 65.9893 34.0087C65.6255 33.6448 65.0661 33.5623 64.6127 33.8056L56.8917 37.9648L53.0837 23.3663C55.1624 23.6059 57.2055 24.0907 59.1702 24.8106L58.4457 26.5606C58.2011 27.155 58.4833 27.8353 59.0769 28.082ZM59.7092 42.4996L57.9592 42.0423L57.5019 40.2923L62.2969 37.7081L59.7092 42.4996ZM57.349 44.2963L60.0009 44.9881L60.0324 44.9963L74.7382 48.8323H52.8154L57.349 44.2963ZM74.7382 51.1656L57.349 55.7016L52.8154 51.1656H74.7382ZM59.7092 57.4983L62.2934 62.2933L57.4984 59.7091L57.9557 57.9591L59.7092 57.4983ZM64.6092 66.1923C65.0626 66.4356 65.622 66.3531 65.9858 65.9893C66.3497 65.6254 66.4322 65.0661 66.1889 64.6126L62.0297 56.8916L76.6282 53.0836C76.3887 55.1624 75.9038 57.2054 75.1839 59.1701L73.4339 58.4456C72.8385 58.1992 72.1561 58.482 71.9096 59.0774C71.6632 59.6727 71.946 60.3552 72.5414 60.6016L74.2809 61.3226C73.1291 63.8038 71.6015 66.0925 69.7519 68.108L69.4847 67.8408C69.0269 67.3987 68.2993 67.405 67.8493 67.855C67.3992 68.305 67.3929 69.0327 67.835 69.4905L68.1022 69.7576C66.0867 71.6071 63.798 73.1347 61.3169 74.2866L60.5959 72.5471C60.3494 71.9518 59.667 71.6689 59.0716 71.9154C58.4763 72.1618 58.1934 72.8443 58.4399 73.4396L59.1644 75.1896C57.1997 75.9098 55.1566 76.3947 53.0779 76.634L56.8859 62.0355L64.6092 66.1923ZM81.4349 48.1673L79.0339 47.5408C78.7929 44.5599 78.0895 41.6347 76.949 38.8701C76.949 38.8596 76.949 38.848 76.942 38.8375C76.935 38.827 76.9269 38.8176 76.921 38.806C75.4625 35.2794 73.3215 32.0758 70.621 29.3793C67.9248 26.6784 64.7212 24.5374 61.1944 23.0793C61.1827 23.0793 61.1757 23.063 61.1629 23.0583C61.15 23.0536 61.1407 23.0583 61.129 23.0513C58.3646 21.9123 55.4398 21.2101 52.4595 20.97L51.8307 18.5631C67.7504 19.5579 80.4401 32.2476 81.4349 48.1673ZM51.1657 25.2656L55.7017 42.649L51.1657 47.1826V25.2656ZM51.1657 52.8211L55.7017 57.349L51.1657 74.7381V52.8211ZM48.8324 74.7381L44.2964 57.349L48.8324 52.8153V74.7381ZM40.9212 71.916C40.6353 71.7974 40.314 71.7973 40.028 71.9156C39.742 72.034 39.5148 72.2612 39.3964 72.5471L38.6754 74.2866C36.1942 73.1348 33.9055 71.6072 31.89 69.7576L32.1572 69.4905C32.5993 69.0327 32.593 68.305 32.143 67.855C31.693 67.405 30.9653 67.3987 30.5075 67.8408L30.2404 68.108C28.3909 66.0924 26.8633 63.8038 25.7114 61.3226L27.4509 60.6016C28.0462 60.3552 28.3291 59.6727 28.0826 59.0774C27.8362 58.482 27.1537 58.1992 26.5584 58.4456L24.8084 59.1701C24.0882 57.2055 23.6033 55.1624 23.364 53.0836L37.9625 56.8916L33.8057 64.6126C33.5624 65.0661 33.6448 65.6254 34.0087 65.9893C34.3726 66.3531 34.9319 66.4356 35.3854 66.1923L43.1064 62.0331L46.9144 76.6316C44.8356 76.3921 42.7926 75.9073 40.8279 75.1873L41.5524 73.4373C41.797 72.8429 41.5147 72.1626 40.9212 71.916ZM27.4509 39.3963L25.7114 38.6753C26.8632 36.1941 28.3908 33.9054 30.2404 31.89L30.5075 32.1571C30.9653 32.5993 31.693 32.5929 32.143 32.1429C32.593 31.6929 32.5993 30.9652 32.1572 30.5075L31.89 30.2403C33.9056 28.3908 36.1942 26.8632 38.6754 25.7113L39.3964 27.4508C39.6428 28.0462 40.3253 28.329 40.9206 28.0826C41.516 27.8361 41.7988 27.1537 41.5524 26.5583L40.8279 24.8083C42.7925 24.0881 44.8356 23.6033 46.9144 23.364L43.1064 37.9648L35.3854 33.8056C34.9319 33.5623 34.3726 33.6448 34.0087 34.0087C33.6448 34.3725 33.5624 34.9319 33.8057 35.3853L37.9649 43.1063L23.3664 46.9143C23.6059 44.8356 24.0907 42.7925 24.8107 40.8278L26.5607 41.5523C26.9458 41.7117 27.3868 41.6536 27.7174 41.3998C28.048 41.1459 28.2181 40.735 28.1636 40.3218C28.1092 39.9085 27.8383 39.5557 27.4532 39.3963H27.4509ZM25.2657 51.1656H47.1827L42.649 55.7016L25.2657 51.1656ZM42.5055 59.7091L37.7105 62.2933L40.2947 57.4983L42.0447 57.9556L42.5055 59.7091ZM25.2657 48.8323L39.9657 44.9963L39.9972 44.9881L42.649 44.2963L47.1827 48.8323H25.2657ZM37.7105 37.7046L42.5055 40.2888L42.0482 42.0388L40.2982 42.4961L37.7105 37.7046ZM48.8324 25.2656V47.1826L44.2964 42.649L48.8324 25.2656ZM48.1674 18.569L47.5409 20.97C44.5603 21.2091 41.6351 21.9105 38.8702 23.049C38.8597 23.049 38.848 23.049 38.8375 23.056C38.827 23.063 38.8177 23.0711 38.8049 23.077C35.2788 24.5358 32.0757 26.6768 29.3794 29.377C26.6785 32.0732 24.5374 35.2768 23.0794 38.8036C23.0794 38.8153 23.063 38.8223 23.0584 38.8351C23.0537 38.848 23.0584 38.8573 23.0514 38.869C21.9124 41.6334 21.2102 44.5582 20.97 47.5385L18.569 48.165C19.5646 32.2482 32.2508 19.5606 48.1674 18.5631V18.569ZM20.9642 52.4571C21.2052 55.438 21.9086 58.3632 23.049 61.1278C23.049 61.1383 23.049 61.15 23.056 61.1605C23.0648 61.177 23.0745 61.1929 23.0852 61.2083C24.5424 64.7285 26.6802 67.9264 29.3759 70.6186C32.0721 73.3195 35.2757 75.4606 38.8025 76.9186C38.8142 76.9245 38.8212 76.935 38.834 76.9396C38.8469 76.9443 38.8574 76.9396 38.869 76.9466C41.6331 78.0856 44.5575 78.7878 47.5374 79.028L48.1639 81.429C32.2476 80.4329 19.5606 67.7468 18.5632 51.8306L20.9642 52.4571Z" fill="white"/>
</g>
<defs>
<clipPath id="clip0_102_269">
<rect width="70" height="70" fill="white" transform="translate(15 15)"/>
</clipPath>
</defs>
</svg>
