<svg width="100" height="100" viewBox="0 0 100 100" fill="none" xmlns="http://www.w3.org/2000/svg">
<circle cx="50" cy="50" r="50" fill="#009CC4"/>
<g clip-path="url(#clip0_102_279)">
<path d="M21.5684 72.8418C21.4514 73.9025 21.5849 74.9758 21.9581 75.9755C22.4756 77.8338 24.1547 79.1297 26.0834 79.1593C26.4041 79.1585 26.7238 79.1253 27.0378 79.0602C30.355 78.2573 33.6264 77.2758 36.8378 76.1202C39.4581 77.6637 41.1159 82.3513 41.5476 84.1095C41.6751 84.6322 42.1436 84.9999 42.6816 84.9997L71.8844 84.9192C72.2537 84.9183 72.6008 84.7426 72.8202 84.4455C73.0395 84.1484 73.1053 83.765 72.9974 83.4118C72.7115 82.615 72.314 81.8628 71.8168 81.1777C71.5419 80.7828 71.2936 80.3701 71.0736 79.9422C70.5474 78.8642 70.1065 77.7466 69.7553 76.5997C69.089 74.3463 68.6298 72.0368 68.3833 69.7C68.1623 67.8651 68.2051 66.008 68.5104 64.1852C68.5856 63.7707 68.4316 63.348 68.1075 63.079C67.7833 62.8101 67.3394 62.7367 66.946 62.8871C66.5525 63.0375 66.2707 63.3882 66.2086 63.8048C65.8672 65.846 65.8196 67.9254 66.0674 69.98C66.3295 72.4549 66.8172 74.9007 67.5246 77.2868C67.9091 78.5446 68.3916 79.7702 68.9678 80.9525C69.2317 81.4734 69.5307 81.9758 69.8626 82.4563L69.9489 82.5858L43.5624 82.6663C42.7881 79.8985 41.3833 77.3477 39.4581 75.2137C39.7626 75.1087 40.0496 75.0072 40.3168 74.9138C41.1894 74.607 41.8486 74.3748 42.1834 74.271C47.1744 72.7007 49.6699 70.428 49.6011 67.5148C49.5998 67.2036 49.4718 66.9064 49.2467 66.6915C49.0215 66.4767 48.7185 66.3628 48.4076 66.3762C47.7637 66.3915 47.2539 66.9257 47.2689 67.5697C47.2969 68.7713 46.3158 70.5248 41.4811 72.045C41.1369 72.1535 40.4533 72.395 39.5479 72.7123C38.7149 73.004 37.6894 73.3645 36.5659 73.7483C33.2875 74.9369 29.9471 75.9472 26.5594 76.7747C25.4696 76.9841 24.4098 76.2922 24.1631 75.2102C23.9107 74.5549 23.8141 73.85 23.8808 73.151C23.9134 72.9095 23.9683 72.668 24.0208 72.4265C24.2601 71.6168 24.2978 70.7609 24.1304 69.9333C23.7959 68.8635 23.0123 67.9921 21.9838 67.5463L21.7353 67.4028C21.8602 67.1473 22.0098 66.9047 22.1821 66.6783C22.3757 66.4304 22.461 66.1148 22.4186 65.8031C22.3762 65.4914 22.2097 65.2101 21.9569 65.0228C21.6781 64.8152 21.0131 64.3158 20.5348 63.9332C20.5931 63.8235 20.6619 63.6998 20.7226 63.5948C20.9011 63.2787 21.1053 62.9135 21.3059 62.4958C21.6793 61.6805 21.7886 60.7689 21.6186 59.8883C21.3479 58.458 19.9853 57.7603 18.9889 57.2517C18.6528 57.0919 18.3305 56.9045 18.0253 56.6917C17.7806 56.5231 17.5493 56.3358 17.3334 56.1317C17.3334 55.9567 17.5178 55.532 18.4138 54.433C20.4941 51.7453 22.2771 48.8401 23.7314 45.7682C24.0114 45.2864 24.1681 44.743 24.1876 44.1862C24.0692 43.0128 23.4473 41.9486 22.4831 41.2695C22.0164 40.8378 21.5673 40.4295 21.5183 40.0702C21.5228 39.7879 21.5864 39.5097 21.7049 39.2535C21.8951 38.746 22.1179 38.2478 22.3408 37.7508C22.8154 36.7698 23.1936 35.7449 23.4701 34.6907L23.5646 34.28C23.8131 33.0839 24.1373 31.9047 24.5353 30.7497C25.4484 28.2119 26.8691 25.8869 28.7108 23.9165C30.9659 21.5307 34.3761 19.9043 39.1373 18.943C42.7335 18.1554 46.3824 17.631 50.0549 17.3738C54.7226 17.0863 59.3728 18.1669 63.4354 20.483C63.8004 20.6847 64.2452 20.6765 64.6023 20.4613C64.9595 20.2462 65.1748 19.8568 65.167 19.4399C65.1593 19.023 64.9297 18.6419 64.5648 18.4402C60.1147 15.927 55.0359 14.7465 49.9336 15.0393C46.1469 15.3017 42.3845 15.8406 38.6764 16.6517C33.4264 17.711 29.6114 19.5613 27.0098 22.3088C24.9521 24.5083 23.3642 27.1041 22.3431 29.9377C21.9128 31.1847 21.5621 32.4577 21.2931 33.7492L21.1986 34.1575C20.9534 35.0657 20.6225 35.9485 20.2104 36.7942C19.9689 37.3343 19.7286 37.8745 19.5221 38.4275C19.251 39.0435 19.1426 39.7188 19.2071 40.3887C19.4441 41.4304 20.0473 42.3525 20.9069 42.9868C21.4774 43.5107 21.8519 43.8793 21.8554 44.213C21.811 44.3885 21.7422 44.557 21.6513 44.7135C20.2571 47.6604 18.5477 50.4475 16.5529 53.026C15.7211 54.0468 14.8473 55.2427 15.0246 56.449C15.2768 57.3687 15.8829 58.151 16.7104 58.6248C17.0956 58.8908 17.5017 59.1249 17.9249 59.3248C18.4278 59.5803 19.2678 60.0097 19.3249 60.3177C19.4008 60.7125 19.3561 61.1211 19.1966 61.4902C19.0239 61.8542 18.8466 62.1703 18.6903 62.4433C18.2353 63.2495 17.5493 64.4675 18.6261 65.3763C18.8769 65.5992 19.3074 65.9375 19.7018 66.2385C19.4098 66.7516 19.2789 67.3406 19.3261 67.929C19.3888 68.3848 19.6365 68.7945 20.0109 69.0618C20.2723 69.2473 20.5488 69.4118 20.8276 69.5658C21.5113 69.9578 21.7784 70.1398 21.8706 70.4992C21.9329 70.9744 21.8899 71.4576 21.7446 71.9143C21.6758 72.2305 21.6093 72.5362 21.5684 72.8418Z" fill="white"/>
<path d="M28.0281 35.7596L28.1448 35.2545C28.3493 34.2793 28.6099 33.3168 28.9253 32.3716C29.6286 30.4242 30.7174 28.6386 32.1266 27.1216C33.6389 25.6957 35.4901 24.6794 37.505 24.1688C37.9037 24.0471 38.2071 23.7219 38.3011 23.3158C38.395 22.9097 38.2651 22.4843 37.9604 22.1999C37.6556 21.9155 37.2223 21.8153 36.8236 21.937C34.4202 22.5623 32.2183 23.7962 30.4303 25.5198C28.8051 27.2664 27.5492 29.3231 26.7378 31.5666C26.3881 32.6018 26.0998 33.6568 25.8745 34.726L25.7578 35.2311C25.65 35.6417 25.7737 36.0785 26.0808 36.3716C26.388 36.6646 26.8301 36.7677 27.2352 36.6407C27.6403 36.5138 27.9444 36.1768 28.0293 35.7608L28.0281 35.7596Z" fill="white"/>
<path d="M25.5 40.6667C26.1443 40.6667 26.6666 40.1444 26.6666 39.5C26.6666 38.8557 26.1443 38.3334 25.5 38.3334C24.8556 38.3334 24.3333 38.8557 24.3333 39.5C24.3333 40.1444 24.8556 40.6667 25.5 40.6667Z" fill="white"/>
<path d="M74.465 50.8564L81.2048 44.0547L81.4172 43.8331L81.4265 43.8214C81.451 43.7957 81.4767 43.7701 81.5012 43.7432C86.2375 38.648 86.102 30.721 81.1943 25.7906C76.3387 20.8315 68.4 20.6933 63.3747 25.4802C63.2673 25.5813 63.1612 25.6852 63.0562 25.7917C63.048 25.7999 63.0457 25.8116 63.0375 25.8197L50.8412 38.1199C49.4489 39.5287 49.4489 41.7954 50.8412 43.2042C51.5044 43.8745 52.4077 44.2525 53.3507 44.2542L65.036 56.055C65.5259 56.5542 65.5259 57.3537 65.036 57.8529C64.8053 58.0875 64.49 58.2196 64.161 58.2196C63.832 58.2196 63.5167 58.0875 63.286 57.8529L49.0807 43.5192C48.6271 43.0614 47.8882 43.058 47.4304 43.5116C46.9726 43.9652 46.9692 44.7041 47.4228 45.1619L61.6293 59.4991C62.12 59.9983 62.12 60.7987 61.6293 61.298C61.1424 61.7723 60.3663 61.7723 59.8793 61.298L41.404 42.6501C41.32 42.5649 41.2372 42.4786 41.1567 42.3911C37.2689 38.2127 37.3802 31.7083 41.4087 27.6654C43.3652 25.6828 46.0345 24.5668 48.8199 24.5668C51.6053 24.5668 54.2746 25.6828 56.2312 27.6654C56.5227 27.9698 56.9557 28.0933 57.3639 27.9885C57.7721 27.8837 58.092 27.5669 58.2009 27.1597C58.3097 26.7526 58.1905 26.3184 57.889 26.0239C55.4943 23.5989 52.2281 22.2339 48.8199 22.2339C45.4118 22.2339 42.1456 23.5989 39.7508 26.0239C34.8424 30.9545 34.7069 38.8823 39.444 43.9777C39.4522 43.9871 39.4545 43.9987 39.4638 44.0081L39.7392 44.2857L39.7462 44.2927L58.2145 62.9314C58.8837 63.6092 59.7966 63.9907 60.7491 63.9907C61.7016 63.9907 62.6144 63.6092 63.2837 62.9314C63.9142 62.2891 64.2806 61.4334 64.3103 60.5339C65.2081 60.5016 66.0599 60.1286 66.6927 59.4909C67.3233 58.8485 67.6901 57.993 67.7205 57.0934C68.6189 57.0593 69.4705 56.6837 70.1017 56.0434C70.7322 55.4015 71.099 54.5463 71.1295 53.6471C72.0281 53.6122 72.8798 53.2368 73.5118 52.5971C73.9873 52.1183 74.3177 51.5149 74.465 50.8564ZM52.4978 39.7637L64.9812 27.1742C69.0874 23.2646 75.5731 23.38 79.5377 27.4332C83.5661 31.4761 83.6774 37.9805 79.7897 42.1589L79.7243 42.2266L73.9458 48.0599C73.8214 47.8717 73.6792 47.6959 73.5212 47.5349L62.5697 36.4831L63.601 35.4424C65.0801 36.8605 66.997 37.7342 69.0377 37.9204C71.4062 37.9629 73.6728 36.9579 75.2315 35.1741C75.5247 34.8767 75.637 34.4454 75.5261 34.0428C75.4151 33.6401 75.0978 33.3273 74.6937 33.222C74.2895 33.1168 73.8599 33.2352 73.5667 33.5326C72.4627 34.8204 70.8575 35.5703 69.1613 35.5906C67.3485 35.3451 65.6903 34.4385 64.5052 33.0449C64.2962 32.7873 63.9875 32.6307 63.6562 32.6145C63.3249 32.5982 63.0023 32.7238 62.7692 32.9597L60.1068 35.6501L56.7083 39.0801L54.2653 41.5452C54.0345 41.7805 53.7187 41.913 53.3892 41.9127C53.0599 41.9132 52.7444 41.7806 52.5142 41.5452C52.0303 41.0525 52.0231 40.2652 52.4978 39.7637ZM68.4485 54.4159C67.9626 54.8926 67.1844 54.8926 66.6985 54.4159L55.7318 43.3512C55.789 43.3011 55.8485 43.2614 55.9068 43.2066L57.518 41.5814L68.4333 52.6029L68.4438 52.6181C68.935 53.1159 68.9371 53.9155 68.4485 54.4159ZM70.1133 50.9789L59.1583 39.9224L60.9235 38.1409L71.8575 49.1752C72.3474 49.6744 72.3474 50.4739 71.8575 50.9731C71.3734 51.4463 70.6006 51.4489 70.1133 50.9789Z" fill="white"/>
</g>
<defs>
<clipPath id="clip0_102_279">
<rect width="70" height="70" fill="white" transform="translate(15 15)"/>
</clipPath>
</defs>
</svg>
