<svg width="1178" height="372" viewBox="0 0 1178 372" fill="none" xmlns="http://www.w3.org/2000/svg">
<path d="M185.57 371.167C136.011 371.167 89.4195 351.882 54.3385 316.829C19.2849 281.775 0 235.183 0 185.597C0 136.039 19.2849 89.4474 54.3385 54.3664C89.4195 19.3128 136.011 0.027832 185.57 0.027832C230.678 0.027832 274.165 16.4008 308.01 46.1249C309.713 47.6358 309.878 50.2182 308.394 51.9489C306.883 53.6521 304.301 53.8169 302.57 52.3335C270.237 23.928 228.672 8.26927 185.57 8.26927C138.236 8.26927 93.6776 26.7026 60.1625 60.1903C26.6748 93.7055 8.24143 138.237 8.24143 185.597C8.24143 232.986 26.6748 277.517 60.1625 311.005C93.6776 344.492 138.209 362.926 185.57 362.926C219.277 362.926 252.05 353.448 280.319 335.537C330.014 304.082 358.008 242.546 385.122 183.043C412.484 122.99 440.752 60.8771 491.601 28.708C521.243 9.94503 555.527 0.027832 590.746 0.027832C640.332 0.027832 686.923 19.3128 721.977 54.3664C735.081 67.4702 746.097 82.3598 754.723 98.6229C755.794 100.628 755.025 103.128 753.02 104.2C751.014 105.271 748.514 104.502 747.443 102.496C739.202 86.9475 728.68 72.7173 716.153 60.1903C682.665 26.7026 638.134 8.26927 590.746 8.26927C557.093 8.26927 524.32 17.7469 495.997 35.6583C447.208 66.5087 419.461 127.495 392.594 186.449C365.013 247.051 336.47 309.686 284.714 342.487C255.127 361.25 220.843 371.167 185.57 371.167Z" fill="url(#paint0_linear_102_499)"/>
<path d="M313.065 39.8064C318.12 44.4217 318.504 52.251 313.889 57.3058C309.274 62.3605 301.445 62.7451 296.39 58.1299C291.335 53.5147 290.951 45.6853 295.566 40.6306C300.153 35.5758 307.983 35.1912 313.065 39.8064Z" fill="url(#paint1_linear_102_499)"/>
<path d="M739.587 105.683C742.664 111.782 750.136 114.227 756.234 111.15C762.333 108.073 764.778 100.601 761.701 94.5022C758.624 88.4036 751.152 85.9586 745.054 89.0354C738.955 92.1122 736.51 99.5845 739.587 105.683Z" fill="url(#paint2_linear_102_499)"/>
<path d="M991.527 371.167C946.419 371.167 902.931 354.794 869.086 325.042C867.383 323.531 867.218 320.949 868.702 319.218C870.213 317.515 872.795 317.35 874.526 318.834C906.86 347.239 948.397 362.898 991.499 362.898C1038.83 362.898 1083.39 344.464 1116.91 310.977C1150.39 277.462 1168.83 232.93 1168.83 185.57C1168.83 138.181 1150.39 93.6502 1116.91 60.1625C1083.39 26.6748 1038.86 8.24143 991.499 8.24143C957.792 8.24143 925.018 17.7191 896.778 35.6305C847.082 67.1127 819.061 128.621 791.974 188.097C764.64 248.15 736.345 310.235 685.467 342.432C655.881 361.195 621.596 371.139 586.35 371.139C536.764 371.139 490.173 351.854 455.119 316.801C438.719 300.4 425.697 281.335 416.412 260.182C415.506 258.094 416.44 255.677 418.527 254.743C420.615 253.836 423.033 254.77 423.967 256.858C432.84 277.077 445.285 295.291 460.971 310.977C494.458 344.464 538.99 362.898 586.378 362.898C620.058 362.898 652.804 353.42 681.099 335.481C729.916 304.603 757.662 243.644 784.502 184.691C812.083 124.116 840.626 61.4536 892.41 28.6802C921.969 9.9172 956.253 0 991.527 0C1041.09 0 1087.68 19.285 1122.76 54.3385C1157.81 89.3921 1177.1 135.984 1177.1 185.57C1177.1 235.128 1157.81 281.72 1122.76 316.801C1087.68 351.882 1041.09 371.167 991.527 371.167Z" fill="url(#paint3_linear_102_499)"/>
<path d="M409.05 263.781C406.468 257.435 409.517 250.21 415.863 247.627C422.209 245.045 429.434 248.094 432.016 254.44C434.599 260.786 431.549 268.011 425.203 270.594C418.858 273.176 411.633 270.099 409.05 263.781Z" fill="url(#paint4_linear_102_499)"/>
<path d="M880.763 313.092C875.708 308.477 867.851 308.861 863.263 313.916C858.648 318.971 859.033 326.828 864.088 331.416C869.142 336.031 876.999 335.646 881.587 330.591C886.202 325.537 885.817 317.68 880.763 313.092Z" fill="url(#paint5_linear_102_499)"/>
<defs>
<linearGradient id="paint0_linear_102_499" x1="0.0208783" y1="185.617" x2="760.362" y2="185.617" gradientUnits="userSpaceOnUse">
<stop stop-color="#4D4D4D"/>
<stop offset="0.6447" stop-color="#24B7C1"/>
<stop offset="0.7005" stop-color="#16CABD"/>
</linearGradient>
<linearGradient id="paint1_linear_102_499" x1="0.0183189" y1="48.9715" x2="760.368" y2="48.9715" gradientUnits="userSpaceOnUse">
<stop offset="0.171875" stop-color="#313335"/>
<stop offset="0.6447" stop-color="#24B7C1"/>
<stop offset="0.7005" stop-color="#16CABD"/>
</linearGradient>
<linearGradient id="paint2_linear_102_499" x1="0.0200277" y1="100.094" x2="760.365" y2="100.094" gradientUnits="userSpaceOnUse">
<stop offset="0.2609" stop-color="#7B3DD9"/>
<stop offset="0.3807" stop-color="#6260D2"/>
<stop offset="0.6447" stop-color="#24B7C1"/>
<stop offset="0.7005" stop-color="#16CABD"/>
</linearGradient>
<linearGradient id="paint3_linear_102_499" x1="411.73" y1="185.617" x2="1177.09" y2="185.617" gradientUnits="userSpaceOnUse">
<stop offset="0.3575" stop-color="#16CABD"/>
<stop offset="0.5472" stop-color="#84848B"/>
<stop offset="0.984375" stop-color="#696767"/>
</linearGradient>
<linearGradient id="paint4_linear_102_499" x1="411.731" y1="259.103" x2="1177.09" y2="259.103" gradientUnits="userSpaceOnUse">
<stop offset="0.3575" stop-color="#16CABD"/>
<stop offset="0.5472" stop-color="#84848B"/>
<stop offset="0.7095" stop-color="#DC4C64"/>
<stop offset="0.7826" stop-color="#FF3654"/>
</linearGradient>
<linearGradient id="paint5_linear_102_499" x1="411.73" y1="322.262" x2="1177.09" y2="322.262" gradientUnits="userSpaceOnUse">
<stop offset="0.3575" stop-color="#696767"/>
<stop offset="0.5472" stop-color="#84848B"/>
<stop offset="0.7826" stop-color="#696767"/>
</linearGradient>
</defs>
</svg>
