<svg width="1076" height="294" viewBox="0 0 1076 294" fill="none" xmlns="http://www.w3.org/2000/svg">
<path d="M568.225 97.4658C567.472 97.4658 566.881 98.0569 566.881 98.8091V130.134C566.881 145.421 579.32 157.86 594.607 157.86H920.593C934.402 157.86 945.632 169.089 945.632 182.898V200.415C945.632 201.167 946.223 201.758 946.975 201.758C947.727 201.758 948.318 201.167 948.318 200.415V182.898C948.318 167.612 935.879 155.173 920.593 155.173H594.607C580.798 155.173 569.568 143.943 569.568 130.134V98.8091C569.568 98.0569 568.977 97.4658 568.225 97.4658Z" fill="#4D4D4D"/>
<path d="M946.977 205.196C949.766 205.196 952.027 202.935 952.027 200.146C952.027 197.356 949.766 195.095 946.977 195.095C944.187 195.095 941.926 197.356 941.926 200.146C941.926 202.935 944.187 205.196 946.977 205.196Z" fill="#4D4D4D"/>
<path d="M568.226 104.101C571.015 104.101 573.276 101.84 573.276 99.0507C573.276 96.2613 571.015 94 568.226 94C565.436 94 563.175 96.2613 563.175 99.0507C563.175 101.84 565.436 104.101 568.226 104.101Z" fill="#4D4D4D"/>
<path d="M521.801 97.4658C521.049 97.4658 520.458 98.0569 520.458 98.8091V130.134C520.458 143.943 509.228 155.173 495.419 155.173H169.433C154.147 155.173 141.708 167.612 141.708 182.898V200.415C141.708 201.167 142.299 201.758 143.051 201.758C143.804 201.758 144.395 201.167 144.395 200.415V182.898C144.395 169.089 155.624 157.86 169.433 157.86H495.419C510.706 157.86 523.145 145.421 523.145 130.134V98.8091C523.145 98.0569 522.527 97.4658 521.801 97.4658Z" fill="#4D4D4D"/>
<path d="M138 200.146C138 202.94 140.257 205.196 143.051 205.196C145.845 205.196 148.101 202.94 148.101 200.146C148.101 197.352 145.845 195.095 143.051 195.095C140.257 195.095 138 197.352 138 200.146Z" fill="#4D4D4D"/>
<path d="M521.802 104.101C524.591 104.101 526.852 101.84 526.852 99.0507C526.852 96.2613 524.591 94 521.802 94C519.012 94 516.751 96.2613 516.751 99.0507C516.751 101.84 519.012 104.101 521.802 104.101Z" fill="#4D4D4D"/>
<path d="M544.879 97.4658C544.127 97.4658 543.536 98.0569 543.536 98.8091V200.388C543.536 201.14 544.127 201.731 544.879 201.731C545.632 201.731 546.223 201.14 546.223 200.388V98.8091C546.223 98.0569 545.632 97.4658 544.879 97.4658Z" fill="#4D4D4D"/>
<path d="M539.828 200.146C539.828 202.94 542.085 205.196 544.879 205.196C547.673 205.196 549.929 202.94 549.929 200.146C549.929 197.352 547.673 195.095 544.879 195.095C542.085 195.095 539.828 197.352 539.828 200.146Z" fill="#4D4D4D"/>
<path d="M539.828 99.0507C539.828 96.2567 542.085 94 544.879 94C547.673 94 549.929 96.2567 549.929 99.0507C549.929 101.845 547.673 104.101 544.879 104.101C542.085 104.101 539.828 101.845 539.828 99.0507Z" fill="#4D4D4D"/>
<g filter="url(#filter0_d_3_46)">
<path d="M666 4H424C421.791 4 420 5.79086 420 8V60C420 62.2091 421.791 64 424 64H666C668.209 64 670 62.2091 670 60V8C670 5.79086 668.209 4 666 4Z" fill="#009CC4"/>
</g>
<path d="M459.492 47V21.296H478.788V47H475.584V24.14H462.732V47H459.492ZM494.572 27.344C496.948 27.344 498.856 28.172 500.296 29.828C501.76 31.484 502.492 33.98 502.492 37.316C502.492 39.5 502.156 41.348 501.484 42.86C500.836 44.348 499.912 45.476 498.712 46.244C497.536 46.988 496.144 47.36 494.536 47.36C493.552 47.36 492.676 47.228 491.908 46.964C491.14 46.7 490.48 46.364 489.928 45.956C489.4 45.524 488.944 45.056 488.56 44.552H488.344C488.392 44.96 488.44 45.476 488.488 46.1C488.536 46.724 488.56 47.264 488.56 47.72V55.64H485.392V27.704H487.984L488.416 30.332H488.56C488.944 29.78 489.4 29.276 489.928 28.82C490.48 28.364 491.128 28.004 491.872 27.74C492.64 27.476 493.54 27.344 494.572 27.344ZM493.996 30.008C492.7 30.008 491.656 30.26 490.864 30.764C490.072 31.244 489.496 31.976 489.136 32.96C488.776 33.944 488.584 35.192 488.56 36.704V37.316C488.56 38.9 488.728 40.244 489.064 41.348C489.4 42.452 489.964 43.292 490.756 43.868C491.572 44.444 492.676 44.732 494.068 44.732C495.244 44.732 496.204 44.408 496.948 43.76C497.716 43.112 498.28 42.236 498.64 41.132C499.024 40.004 499.216 38.72 499.216 37.28C499.216 35.072 498.784 33.308 497.92 31.988C497.08 30.668 495.772 30.008 493.996 30.008ZM524.316 37.316C524.316 38.924 524.1 40.352 523.668 41.6C523.26 42.824 522.66 43.868 521.868 44.732C521.1 45.596 520.152 46.256 519.024 46.712C517.92 47.144 516.684 47.36 515.316 47.36C514.044 47.36 512.868 47.144 511.788 46.712C510.708 46.256 509.772 45.596 508.98 44.732C508.188 43.868 507.564 42.824 507.108 41.6C506.676 40.352 506.46 38.924 506.46 37.316C506.46 35.18 506.82 33.38 507.54 31.916C508.26 30.428 509.292 29.3 510.636 28.532C511.98 27.74 513.576 27.344 515.424 27.344C517.176 27.344 518.712 27.74 520.032 28.532C521.376 29.3 522.42 30.428 523.164 31.916C523.932 33.38 524.316 35.18 524.316 37.316ZM509.736 37.316C509.736 38.828 509.928 40.148 510.312 41.276C510.72 42.38 511.344 43.232 512.184 43.832C513.024 44.432 514.092 44.732 515.388 44.732C516.684 44.732 517.752 44.432 518.592 43.832C519.432 43.232 520.044 42.38 520.428 41.276C520.836 40.148 521.04 38.828 521.04 37.316C521.04 35.78 520.836 34.472 520.428 33.392C520.02 32.312 519.396 31.484 518.556 30.908C517.74 30.308 516.672 30.008 515.352 30.008C513.384 30.008 511.956 30.656 511.068 31.952C510.18 33.248 509.736 35.036 509.736 37.316ZM536.789 27.344C538.445 27.344 539.861 27.704 541.037 28.424C542.237 29.144 543.149 30.164 543.773 31.484C544.421 32.78 544.745 34.304 544.745 36.056V37.964H531.533C531.581 40.148 532.133 41.816 533.189 42.968C534.269 44.096 535.769 44.66 537.689 44.66C538.913 44.66 539.993 44.552 540.929 44.336C541.889 44.096 542.873 43.76 543.881 43.328V46.1C542.897 46.532 541.925 46.844 540.965 47.036C540.005 47.252 538.865 47.36 537.545 47.36C535.721 47.36 534.101 46.988 532.685 46.244C531.293 45.5 530.201 44.396 529.409 42.932C528.641 41.444 528.257 39.632 528.257 37.496C528.257 35.384 528.605 33.572 529.301 32.06C530.021 30.548 531.017 29.384 532.289 28.568C533.585 27.752 535.085 27.344 536.789 27.344ZM536.753 29.936C535.241 29.936 534.041 30.428 533.153 31.412C532.289 32.372 531.773 33.716 531.605 35.444H541.433C541.433 34.34 541.265 33.38 540.929 32.564C540.593 31.748 540.077 31.112 539.381 30.656C538.709 30.176 537.833 29.936 536.753 29.936ZM561.07 27.704H564.526L556.282 36.992L565.21 47H561.538L552.826 37.208V47H549.658V27.704H552.826V37.064L561.07 27.704ZM582.032 30.368H575.732V47H572.6V30.368H566.372V27.704H582.032V30.368ZM585.833 47V27.704H589.001V35.624H594.005C595.685 35.624 597.065 35.828 598.145 36.236C599.225 36.644 600.029 37.256 600.557 38.072C601.085 38.864 601.349 39.872 601.349 41.096C601.349 42.296 601.085 43.34 600.557 44.228C600.053 45.116 599.249 45.8 598.145 46.28C597.065 46.76 595.637 47 593.861 47H585.833ZM593.573 44.444C594.941 44.444 596.057 44.216 596.921 43.76C597.785 43.28 598.217 42.452 598.217 41.276C598.217 40.1 597.821 39.308 597.029 38.9C596.237 38.468 595.097 38.252 593.609 38.252H589.001V44.444H593.573ZM604.553 47V27.704H607.721V47H604.553Z" fill="white"/>
<g filter="url(#filter1_d_3_46)">
<path d="M264 230H22C19.7909 230 18 231.791 18 234V286C18 288.209 19.7909 290 22 290H264C266.209 290 268 288.209 268 286V234C268 231.791 266.209 230 264 230Z" fill="#366181"/>
</g>
<path d="M6.51721 245.012C4.78175 243.957 3.43086 242.429 2.44481 240.437C1.46861 238.435 0.975586 236.059 0.975586 233.298C0.975586 230.537 1.46861 228.16 2.44481 226.159C3.421 224.157 4.78175 222.639 6.51721 221.583C8.25267 220.528 10.2445 220.006 12.4927 220.006C14.7409 220.006 16.7327 220.528 18.4682 221.583C20.2037 222.639 21.5545 224.167 22.5406 226.159C23.5168 228.16 24.0098 230.537 24.0098 233.298C24.0098 236.059 23.5168 238.435 22.5406 240.437C21.5644 242.438 20.2037 243.957 18.4682 245.012C16.7327 246.067 14.7409 246.59 12.4927 246.59C10.2346 246.59 8.24281 246.067 6.51721 245.012ZM15.3917 233.298C15.3917 229.008 14.4254 226.869 12.4828 226.869C10.5403 226.869 9.57398 229.008 9.57398 233.298C9.57398 237.587 10.5403 239.727 12.4828 239.727C14.4254 239.727 15.3917 237.587 15.3917 233.298Z" fill="#366181"/>
<path d="M12.4933 247.576C10.0676 247.576 7.88844 246.994 6.00508 245.85C4.12171 244.706 2.62291 243.03 1.56783 240.861C0.522613 238.741 0 236.187 0 233.288C0 230.389 0.532474 227.845 1.56783 225.715C2.62291 223.556 4.12171 221.879 6.00508 220.726C7.88844 219.582 10.0676 219 12.4933 219C14.919 219 17.0982 219.582 18.9816 220.726C20.8649 221.869 22.3637 223.556 23.4188 225.715C24.464 227.835 24.9866 230.389 24.9866 233.288C24.9866 236.187 24.4542 238.731 23.4188 240.861C22.3637 243.02 20.8649 244.697 18.9816 245.85C17.0982 246.994 14.919 247.576 12.4933 247.576ZM12.4933 220.992C10.4325 220.992 8.5984 221.475 7.03058 222.431C5.47261 223.378 4.23018 224.788 3.33287 226.602C2.4257 228.456 1.96225 230.714 1.96225 233.308C1.96225 235.901 2.4257 238.159 3.33287 240.013C4.22032 241.827 5.47261 243.237 7.03058 244.184C8.5984 245.14 10.4325 245.623 12.4933 245.623C14.5542 245.623 16.3882 245.14 17.9561 244.184C19.514 243.237 20.7565 241.827 21.6538 240.013C22.5609 238.159 23.0244 235.911 23.0244 233.308C23.0244 230.714 22.5609 228.456 21.6538 226.602C20.7663 224.788 19.514 223.378 17.9561 222.431C16.3882 221.475 14.5542 220.992 12.4933 220.992ZM12.4933 240.713C9.90985 240.713 8.5984 238.218 8.5984 233.298C8.5984 228.377 9.90985 225.883 12.4933 225.883C15.0768 225.883 16.3882 228.377 16.3882 233.298C16.3784 238.218 15.0768 240.713 12.4933 240.713ZM12.4933 227.855C10.8269 227.855 10.5705 231.267 10.5705 233.298C10.5705 235.329 10.817 238.741 12.4933 238.741C14.1597 238.741 14.4161 235.329 14.4161 233.298C14.4063 231.267 14.1597 227.855 12.4933 227.855Z" fill="white"/>
<path d="M35.6259 220.588V246.018H27.0571V227.056H22.6987V220.588H35.6259Z" fill="#366181"/>
<path d="M36.6122 246.994H26.0713V228.032H21.7129V219.592H36.6122V246.994ZM28.0434 245.022H34.6401V221.564H23.685V226.06H28.0434V245.022Z" fill="white"/>
<g filter="url(#filter2_d_3_46)">
<path d="M666 230H424C421.791 230 420 231.791 420 234V286C420 288.209 421.791 290 424 290H666C668.209 290 670 288.209 670 286V234C670 231.791 668.209 230 666 230Z" fill="#4D87B3"/>
</g>
<path d="M408.518 245.012C406.782 243.957 405.431 242.429 404.445 240.437C403.469 238.435 402.976 236.059 402.976 233.298C402.976 230.537 403.469 228.16 404.445 226.159C405.421 224.157 406.782 222.639 408.518 221.583C410.253 220.528 412.245 220.006 414.493 220.006C416.741 220.006 418.733 220.528 420.469 221.583C422.204 222.639 423.555 224.167 424.541 226.159C425.517 228.16 426.01 230.537 426.01 233.298C426.01 236.059 425.517 238.435 424.541 240.437C423.565 242.438 422.204 243.957 420.469 245.012C418.733 246.067 416.741 246.59 414.493 246.59C412.245 246.59 410.253 246.067 408.518 245.012ZM417.402 233.298C417.402 229.008 416.436 226.869 414.493 226.869C412.551 226.869 411.584 229.008 411.584 233.298C411.584 237.587 412.551 239.727 414.493 239.727C416.426 239.727 417.402 237.587 417.402 233.298Z" fill="#4D87B2"/>
<path d="M414.493 247.576C412.068 247.576 409.888 246.994 408.005 245.85C406.122 244.706 404.623 243.03 403.568 240.861C402.523 238.741 402 236.187 402 233.288C402 230.389 402.532 227.845 403.568 225.715C404.623 223.556 406.122 221.879 408.005 220.726C409.888 219.582 412.068 219 414.493 219C416.919 219 419.098 219.582 420.982 220.726C422.865 221.869 424.364 223.556 425.419 225.715C426.464 227.835 426.987 230.389 426.987 233.288C426.987 236.187 426.454 238.731 425.419 240.861C424.364 243.02 422.865 244.697 420.982 245.85C419.098 246.994 416.919 247.576 414.493 247.576ZM414.493 220.992C412.432 220.992 410.598 221.475 409.031 222.431C407.473 223.378 406.23 224.788 405.333 226.602C404.426 228.456 403.962 230.714 403.962 233.308C403.962 235.901 404.426 238.159 405.333 240.013C406.22 241.827 407.473 243.237 409.031 244.184C410.598 245.14 412.432 245.623 414.493 245.623C416.554 245.623 418.388 245.14 419.956 244.184C421.514 243.237 422.756 241.827 423.654 240.013C424.561 238.159 425.024 235.911 425.024 233.308C425.024 230.714 424.561 228.456 423.654 226.602C422.766 224.788 421.514 223.378 419.956 222.431C418.388 221.475 416.554 220.992 414.493 220.992ZM414.493 240.713C411.91 240.713 410.598 238.218 410.598 233.298C410.598 228.377 411.91 225.883 414.493 225.883C417.077 225.883 418.388 228.377 418.388 233.298C418.388 238.218 417.077 240.713 414.493 240.713ZM414.493 227.855C412.827 227.855 412.571 231.267 412.571 233.298C412.571 235.329 412.817 238.741 414.493 238.741C416.16 238.741 416.416 235.329 416.416 233.298C416.416 231.267 416.16 227.855 414.493 227.855Z" fill="white"/>
<path d="M445.91 239.362V246.008H425.528V240.742L434.718 232.243C435.517 231.493 436.049 230.852 436.315 230.32C436.582 229.787 436.72 229.265 436.72 228.762C436.72 228.131 436.503 227.638 436.089 227.293C435.665 226.938 435.053 226.77 434.254 226.77C433.476 226.77 432.756 226.977 432.075 227.391C431.395 227.805 430.872 228.387 430.517 229.137L424.049 225.902C425.015 224.088 426.435 222.648 428.299 221.593C430.162 220.538 432.411 220.016 435.053 220.016C437.065 220.016 438.84 220.341 440.398 220.992C441.946 221.643 443.159 222.579 444.026 223.792C444.894 225.005 445.338 226.395 445.338 227.973C445.338 229.373 445.042 230.695 444.45 231.917C443.859 233.14 442.705 234.53 440.979 236.078L437.351 239.382H445.91V239.362Z" fill="#4D87B2"/>
<path d="M446.895 246.994H424.542V240.309L434.047 231.513C434.925 230.685 435.29 230.162 435.438 229.866C435.635 229.472 435.733 229.097 435.733 228.742C435.733 228.318 435.585 228.141 435.457 228.032C435.221 227.835 434.806 227.736 434.254 227.736C433.663 227.736 433.11 227.894 432.588 228.21C432.075 228.525 431.681 228.959 431.405 229.541L430.971 230.438L422.708 226.307L423.181 225.409C424.236 223.437 425.794 221.85 427.815 220.706C429.817 219.572 432.253 219 435.053 219C437.183 219 439.116 219.355 440.772 220.055C442.488 220.775 443.849 221.83 444.825 223.181C445.811 224.561 446.314 226.159 446.314 227.934C446.314 229.482 445.978 230.951 445.328 232.302C444.667 233.653 443.464 235.112 441.63 236.759L439.885 238.346H446.895V246.994ZM426.524 245.022H444.933V240.348H434.797L440.318 235.329C441.936 233.87 443.03 232.568 443.563 231.474C444.085 230.389 444.351 229.216 444.351 227.963C444.351 226.593 443.987 225.409 443.227 224.364C442.468 223.309 441.383 222.481 440.013 221.899C438.593 221.297 436.926 220.992 435.053 220.992C432.598 220.992 430.488 221.485 428.782 222.441C427.401 223.22 426.277 224.246 425.439 225.478L430.142 227.825C430.527 227.303 431 226.869 431.562 226.524C432.391 226.021 433.298 225.764 434.254 225.764C435.29 225.764 436.118 226.021 436.719 226.514C437.37 227.056 437.715 227.825 437.715 228.742C437.715 229.403 437.548 230.073 437.212 230.744C436.887 231.385 436.295 232.115 435.408 232.943L426.533 241.157V245.022H426.524Z" fill="white"/>
<path d="M501.394 267.648C501.394 267.995 501.377 268.402 501.342 268.87C501.307 269.321 501.264 269.789 501.212 270.274C501.16 270.759 501.099 271.236 501.03 271.704C500.978 272.172 500.926 272.579 500.874 272.926H500.198L499.106 269H486.288L485.196 272.926H484.546C484.459 272.597 484.381 272.198 484.312 271.73C484.26 271.262 484.208 270.777 484.156 270.274C484.121 269.789 484.087 269.321 484.052 268.87C484.017 268.402 484 267.995 484 267.648H486.158C486.609 266.92 487.033 265.993 487.432 264.866C487.831 263.722 488.169 262.474 488.446 261.122C488.741 259.753 488.975 258.314 489.148 256.806C489.321 255.298 489.408 253.807 489.408 252.334C488.957 252.247 488.507 252.143 488.056 252.022C487.623 251.901 487.189 251.745 486.756 251.554V250.8H500.562V251.554C500.267 251.675 499.947 251.797 499.6 251.918C499.253 252.022 498.863 252.117 498.43 252.204V267.648H501.394ZM495.934 267.648V252.152H490.916C490.812 254.284 490.639 256.191 490.396 257.872C490.171 259.536 489.902 261.009 489.59 262.292C489.295 263.557 488.983 264.632 488.654 265.516C488.342 266.4 488.056 267.111 487.796 267.648H495.934ZM502.459 262.5C502.459 261.408 502.597 260.446 502.875 259.614C503.169 258.765 503.585 258.054 504.123 257.482C504.66 256.893 505.301 256.451 506.047 256.156C506.809 255.844 507.65 255.688 508.569 255.688C509.643 255.688 510.571 255.853 511.351 256.182C512.131 256.511 512.763 256.979 513.249 257.586C513.751 258.175 514.115 258.886 514.341 259.718C514.583 260.55 514.705 261.477 514.705 262.5C514.705 264.684 514.15 266.365 513.041 267.544C511.931 268.723 510.441 269.312 508.569 269.312C507.529 269.312 506.627 269.156 505.865 268.844C505.102 268.515 504.469 268.055 503.967 267.466C503.464 266.859 503.083 266.14 502.823 265.308C502.58 264.459 502.459 263.523 502.459 262.5ZM504.955 262.5C504.955 263.28 505.024 264.017 505.163 264.71C505.319 265.403 505.553 266.01 505.865 266.53C506.194 267.033 506.619 267.431 507.139 267.726C507.659 268.021 508.283 268.168 509.011 268.168C509.947 268.168 510.709 267.709 511.299 266.79C511.905 265.871 512.209 264.441 512.209 262.5C512.209 261.703 512.131 260.966 511.975 260.29C511.836 259.597 511.611 258.999 511.299 258.496C510.987 257.976 510.588 257.569 510.103 257.274C509.617 256.979 509.037 256.832 508.361 256.832C507.338 256.832 506.515 257.291 505.891 258.21C505.267 259.129 504.955 260.559 504.955 262.5ZM524.214 256H529.232V256.676C529.058 256.815 528.824 256.936 528.53 257.04C528.252 257.144 527.906 257.265 527.49 257.404C526.9 258.115 526.276 258.834 525.618 259.562C524.959 260.29 524.266 261.018 523.538 261.746C523.919 262.162 524.318 262.621 524.734 263.124C525.167 263.627 525.6 264.147 526.034 264.684C526.467 265.221 526.9 265.75 527.334 266.27C527.767 266.79 528.192 267.275 528.608 267.726L529.83 268.35V269H526.788L525.956 268.402C525.176 267.466 524.465 266.53 523.824 265.594C523.182 264.658 522.532 263.739 521.874 262.838H520.834V267.726C521.18 267.813 521.492 267.908 521.77 268.012C522.064 268.099 522.316 268.211 522.524 268.35V269H516.778V268.35C517.246 268.073 517.818 267.865 518.494 267.726V257.3C517.887 257.179 517.315 256.971 516.778 256.676V256H522.108V256.676C521.934 256.797 521.744 256.91 521.536 257.014C521.345 257.118 521.111 257.213 520.834 257.3V262.162L522.03 261.902C522.723 261.105 523.382 260.359 524.006 259.666C524.63 258.973 525.21 258.219 525.748 257.404C525.453 257.283 525.176 257.17 524.916 257.066C524.673 256.945 524.439 256.815 524.214 256.676V256ZM530.922 257.3C530.662 257.231 530.419 257.144 530.194 257.04C529.986 256.936 529.769 256.815 529.544 256.676V256H534.978V256.65C534.614 256.893 534.12 257.109 533.496 257.3L536.824 264.996L537.318 266.608H537.37L537.76 264.97L540.23 257.3C539.71 257.196 539.233 256.988 538.8 256.676V256H543.246V256.676C542.882 256.919 542.388 257.127 541.764 257.3L537.708 269C537.292 270.109 536.893 271.002 536.512 271.678C536.148 272.371 535.775 272.917 535.394 273.316C535.03 273.715 534.649 274.001 534.25 274.174C533.869 274.365 533.453 274.503 533.002 274.59C532.811 274.261 532.638 273.897 532.482 273.498C532.343 273.099 532.222 272.718 532.118 272.354L532.456 271.73H535.16C535.264 271.591 535.351 271.453 535.42 271.314C535.507 271.193 535.593 271.037 535.68 270.846C535.767 270.655 535.862 270.413 535.966 270.118C536.07 269.823 536.191 269.451 536.33 269L530.922 257.3ZM548.339 269H543.763V268.35C544.335 268.073 544.907 267.865 545.479 267.726L545.869 257.56C545.505 257.421 545.184 257.274 544.907 257.118C544.63 256.962 544.378 256.815 544.153 256.676V256H549.223L551.901 263.592L552.395 265.386H552.473L553.019 263.566L555.801 256H560.715V256.676C560.49 256.815 560.238 256.936 559.961 257.04C559.684 257.144 559.363 257.231 558.999 257.3L559.519 267.726C560.091 267.83 560.663 268.038 561.235 268.35V269H555.723V268.35C555.896 268.263 556.104 268.168 556.347 268.064C556.59 267.96 556.902 267.847 557.283 267.726L556.763 257.196H556.555L552.291 269H551.589L547.377 257.196H547.169L546.779 267.726C547.403 267.917 547.923 268.125 548.339 268.35V269ZM573.647 267.18C573.508 267.475 573.291 267.752 572.997 268.012C572.702 268.272 572.364 268.497 571.983 268.688C571.601 268.879 571.185 269.026 570.735 269.13C570.284 269.251 569.825 269.312 569.357 269.312C568.334 269.312 567.433 269.156 566.653 268.844C565.873 268.515 565.223 268.055 564.703 267.466C564.183 266.859 563.784 266.14 563.507 265.308C563.247 264.476 563.117 263.54 563.117 262.5C563.117 260.281 563.628 258.591 564.651 257.43C565.673 256.269 567.121 255.688 568.993 255.688C569.599 255.688 570.197 255.775 570.787 255.948C571.376 256.104 571.896 256.373 572.347 256.754C572.815 257.135 573.187 257.647 573.465 258.288C573.759 258.912 573.907 259.692 573.907 260.628C573.907 260.923 573.889 261.226 573.855 261.538C573.837 261.833 573.794 262.153 573.725 262.5H565.613C565.613 263.228 565.699 263.913 565.873 264.554C566.063 265.178 566.341 265.724 566.705 266.192C567.069 266.66 567.528 267.033 568.083 267.31C568.637 267.57 569.287 267.7 570.033 267.7C570.639 267.7 571.255 267.613 571.879 267.44C572.503 267.267 572.971 267.041 573.283 266.764L573.647 267.18ZM568.889 256.832C567.901 256.832 567.147 257.17 566.627 257.846C566.107 258.505 565.795 259.675 565.691 261.356H571.411C571.428 261.2 571.437 261.053 571.437 260.914C571.454 260.758 571.463 260.611 571.463 260.472C571.463 259.363 571.255 258.479 570.839 257.82C570.423 257.161 569.773 256.832 568.889 256.832ZM581.731 269H576.141V268.35C576.384 268.211 576.652 268.099 576.947 268.012C577.242 267.908 577.545 267.813 577.857 267.726V257.3C577.545 257.213 577.242 257.127 576.947 257.04C576.652 256.936 576.384 256.815 576.141 256.676V256H581.731V256.676C581.332 256.919 580.821 257.127 580.197 257.3V261.85H585.969V257.3C585.362 257.196 584.842 256.988 584.409 256.676V256H590.025V256.676C589.557 256.971 588.985 257.179 588.309 257.3V267.726C588.621 267.795 588.924 267.873 589.219 267.96C589.514 268.047 589.782 268.177 590.025 268.35V269H584.409V268.35C584.842 268.038 585.362 267.83 585.969 267.726V262.994H580.197V267.726C580.544 267.795 580.838 267.882 581.081 267.986C581.324 268.09 581.54 268.211 581.731 268.35V269ZM600.381 269H594.609V268.35C595.146 268.073 595.718 267.865 596.325 267.726V257.144H593.907L592.763 260.264H592.087C592 259.519 591.931 258.791 591.879 258.08C591.827 257.352 591.792 256.659 591.775 256H603.215C603.198 256.624 603.163 257.309 603.111 258.054C603.076 258.782 603.007 259.519 602.903 260.264H602.227L601.083 257.144H598.665V267.726C599.48 267.934 600.052 268.142 600.381 268.35V269Z" fill="white"/>
<rect x="454" y="239" width="185" height="41" fill="#4D87B3"/>
<path d="M472.875 273H464.347V245.364H473.253C475.934 245.364 478.228 245.917 480.135 247.023C482.042 248.121 483.504 249.7 484.521 251.76C485.537 253.811 486.045 256.267 486.045 259.128C486.045 262.007 485.533 264.485 484.507 266.563C483.482 268.632 481.988 270.225 480.027 271.34C478.066 272.447 475.682 273 472.875 273ZM467.693 270.031H472.659C474.944 270.031 476.838 269.59 478.34 268.709C479.843 267.827 480.963 266.572 481.7 264.944C482.438 263.316 482.807 261.377 482.807 259.128C482.807 256.897 482.442 254.976 481.714 253.366C480.985 251.746 479.897 250.505 478.448 249.641C477 248.769 475.196 248.332 473.037 248.332H467.693V270.031ZM499.648 273.432C497.777 273.432 496.135 272.987 494.722 272.096C493.319 271.205 492.221 269.959 491.43 268.358C490.647 266.757 490.256 264.885 490.256 262.744C490.256 260.585 490.647 258.701 491.43 257.09C492.221 255.48 493.319 254.229 494.722 253.339C496.135 252.448 497.777 252.003 499.648 252.003C501.519 252.003 503.156 252.448 504.56 253.339C505.972 254.229 507.07 255.48 507.852 257.09C508.644 258.701 509.04 260.585 509.04 262.744C509.04 264.885 508.644 266.757 507.852 268.358C507.07 269.959 505.972 271.205 504.56 272.096C503.156 272.987 501.519 273.432 499.648 273.432ZM499.648 270.571C501.069 270.571 502.239 270.207 503.156 269.478C504.074 268.749 504.753 267.791 505.194 266.604C505.635 265.416 505.855 264.13 505.855 262.744C505.855 261.359 505.635 260.068 505.194 258.871C504.753 257.675 504.074 256.708 503.156 255.97C502.239 255.232 501.069 254.864 499.648 254.864C498.226 254.864 497.057 255.232 496.139 255.97C495.222 256.708 494.542 257.675 494.102 258.871C493.661 260.068 493.44 261.359 493.44 262.744C493.44 264.13 493.661 265.416 494.102 266.604C494.542 267.791 495.222 268.749 496.139 269.478C497.057 270.207 498.226 270.571 499.648 270.571ZM522.322 273.432C520.378 273.432 518.705 272.973 517.302 272.055C515.898 271.138 514.819 269.874 514.063 268.263C513.307 266.653 512.93 264.813 512.93 262.744C512.93 260.639 513.316 258.781 514.09 257.171C514.873 255.552 515.961 254.288 517.356 253.379C518.759 252.462 520.396 252.003 522.268 252.003C523.725 252.003 525.038 252.273 526.208 252.812C527.377 253.352 528.336 254.108 529.082 255.08C529.829 256.051 530.292 257.185 530.472 258.48H527.287C527.045 257.536 526.505 256.699 525.668 255.97C524.84 255.232 523.725 254.864 522.322 254.864C521.08 254.864 519.992 255.187 519.056 255.835C518.129 256.474 517.405 257.378 516.883 258.548C516.371 259.708 516.114 261.071 516.114 262.636C516.114 264.238 516.366 265.632 516.87 266.82C517.383 268.007 518.102 268.929 519.029 269.586C519.965 270.243 521.062 270.571 522.322 270.571C523.149 270.571 523.9 270.427 524.575 270.139C525.25 269.851 525.821 269.438 526.289 268.898C526.757 268.358 527.09 267.71 527.287 266.955H530.472C530.292 268.178 529.847 269.28 529.136 270.261C528.434 271.232 527.503 272.006 526.343 272.582C525.191 273.148 523.851 273.432 522.322 273.432ZM548.19 264.526V252.273H551.375V273H548.19V269.491H547.974C547.488 270.544 546.733 271.439 545.707 272.177C544.682 272.906 543.386 273.27 541.821 273.27C540.525 273.27 539.374 272.987 538.366 272.42C537.359 271.844 536.567 270.98 535.991 269.829C535.416 268.668 535.128 267.206 535.128 265.443V252.273H538.312V265.227C538.312 266.739 538.735 267.944 539.581 268.844C540.435 269.743 541.524 270.193 542.846 270.193C543.638 270.193 544.443 269.991 545.262 269.586C546.09 269.181 546.782 268.56 547.34 267.724C547.907 266.887 548.19 265.821 548.19 264.526ZM557.208 273V252.273H560.284V255.511H560.554C560.986 254.405 561.683 253.546 562.646 252.934C563.609 252.313 564.765 252.003 566.114 252.003C567.481 252.003 568.619 252.313 569.528 252.934C570.446 253.546 571.161 254.405 571.674 255.511H571.89C572.42 254.441 573.217 253.591 574.278 252.961C575.34 252.322 576.613 252.003 578.097 252.003C579.95 252.003 581.466 252.583 582.645 253.744C583.823 254.895 584.412 256.69 584.412 259.128V273H581.228V259.128C581.228 257.598 580.809 256.505 579.973 255.849C579.136 255.192 578.151 254.864 577.017 254.864C575.56 254.864 574.431 255.304 573.63 256.186C572.83 257.059 572.429 258.165 572.429 259.506V273H569.191V258.804C569.191 257.625 568.808 256.676 568.044 255.957C567.279 255.228 566.294 254.864 565.088 254.864C564.261 254.864 563.487 255.084 562.767 255.525C562.057 255.966 561.481 256.577 561.04 257.36C560.608 258.134 560.392 259.029 560.392 260.045V273H557.208ZM598.925 273.432C596.928 273.432 595.205 272.991 593.757 272.109C592.318 271.219 591.207 269.977 590.424 268.385C589.65 266.784 589.263 264.921 589.263 262.798C589.263 260.675 589.65 258.804 590.424 257.185C591.207 255.556 592.295 254.288 593.69 253.379C595.093 252.462 596.73 252.003 598.602 252.003C599.681 252.003 600.747 252.183 601.8 252.543C602.852 252.902 603.81 253.487 604.674 254.297C605.538 255.098 606.226 256.159 606.739 257.482C607.251 258.804 607.508 260.432 607.508 262.366V263.716H591.531V260.963H604.269C604.269 259.794 604.035 258.75 603.567 257.832C603.109 256.915 602.452 256.191 601.597 255.66C600.752 255.129 599.753 254.864 598.602 254.864C597.333 254.864 596.236 255.179 595.309 255.808C594.391 256.429 593.685 257.239 593.19 258.237C592.696 259.236 592.448 260.306 592.448 261.449V263.284C592.448 264.849 592.718 266.176 593.258 267.265C593.807 268.344 594.567 269.168 595.538 269.734C596.51 270.292 597.639 270.571 598.925 270.571C599.762 270.571 600.518 270.454 601.192 270.22C601.876 269.977 602.465 269.617 602.96 269.141C603.455 268.655 603.837 268.052 604.107 267.332L607.184 268.196C606.86 269.24 606.316 270.157 605.551 270.949C604.786 271.732 603.842 272.343 602.717 272.784C601.593 273.216 600.329 273.432 598.925 273.432ZM615.537 260.531V273H612.352V252.273H615.429V255.511H615.699C616.185 254.459 616.922 253.613 617.912 252.974C618.902 252.327 620.179 252.003 621.744 252.003C623.148 252.003 624.376 252.291 625.428 252.866C626.481 253.433 627.299 254.297 627.884 255.457C628.469 256.609 628.761 258.066 628.761 259.83V273H625.577V260.045C625.577 258.417 625.154 257.149 624.308 256.24C623.463 255.322 622.302 254.864 620.827 254.864C619.81 254.864 618.902 255.084 618.101 255.525C617.309 255.966 616.684 256.609 616.225 257.455C615.766 258.3 615.537 259.326 615.537 260.531ZM643.595 252.273V254.972H632.854V252.273H643.595ZM635.984 247.307H639.169V267.062C639.169 267.962 639.299 268.637 639.56 269.087C639.83 269.527 640.172 269.824 640.586 269.977C641.009 270.121 641.454 270.193 641.922 270.193C642.273 270.193 642.56 270.175 642.785 270.139C643.01 270.094 643.19 270.058 643.325 270.031L643.973 272.892C643.757 272.973 643.456 273.054 643.069 273.135C642.682 273.225 642.192 273.27 641.598 273.27C640.698 273.27 639.817 273.076 638.953 272.69C638.098 272.303 637.388 271.714 636.821 270.922C636.263 270.13 635.984 269.132 635.984 267.926V247.307Z" fill="white"/>
<path d="M62.875 274H54.3466V246.364H63.2528C65.9337 246.364 68.2277 246.917 70.1349 248.023C72.0421 249.121 73.504 250.7 74.5206 252.76C75.5372 254.811 76.0455 257.267 76.0455 260.128C76.0455 263.007 75.5327 265.485 74.5071 267.563C73.4815 269.632 71.9882 271.225 70.027 272.34C68.0658 273.447 65.6818 274 62.875 274ZM57.6932 271.031H62.6591C64.9441 271.031 66.8378 270.59 68.3402 269.709C69.8426 268.827 70.9626 267.572 71.7003 265.944C72.438 264.316 72.8068 262.377 72.8068 260.128C72.8068 257.897 72.4425 255.976 71.7138 254.366C70.9851 252.746 69.8965 251.505 68.4482 250.641C66.9998 249.769 65.196 249.332 63.0369 249.332H57.6932V271.031ZM89.6477 274.432C87.7765 274.432 86.1347 273.987 84.7223 273.096C83.3189 272.205 82.2214 270.959 81.4297 269.358C80.647 267.757 80.2557 265.885 80.2557 263.744C80.2557 261.585 80.647 259.701 81.4297 258.09C82.2214 256.48 83.3189 255.229 84.7223 254.339C86.1347 253.448 87.7765 253.003 89.6477 253.003C91.5189 253.003 93.1563 253.448 94.5597 254.339C95.9721 255.229 97.0696 256.48 97.8523 258.09C98.6439 259.701 99.0398 261.585 99.0398 263.744C99.0398 265.885 98.6439 267.757 97.8523 269.358C97.0696 270.959 95.9721 272.205 94.5597 273.096C93.1563 273.987 91.5189 274.432 89.6477 274.432ZM89.6477 271.571C91.0691 271.571 92.2386 271.207 93.1562 270.478C94.0739 269.749 94.7531 268.791 95.1939 267.604C95.6347 266.416 95.8551 265.13 95.8551 263.744C95.8551 262.359 95.6347 261.068 95.1939 259.871C94.7531 258.675 94.0739 257.708 93.1562 256.97C92.2386 256.232 91.0691 255.864 89.6477 255.864C88.2263 255.864 87.0568 256.232 86.1392 256.97C85.2216 257.708 84.5424 258.675 84.1016 259.871C83.6607 261.068 83.4403 262.359 83.4403 263.744C83.4403 265.13 83.6607 266.416 84.1016 267.604C84.5424 268.791 85.2216 269.749 86.1392 270.478C87.0568 271.207 88.2263 271.571 89.6477 271.571ZM112.322 274.432C110.378 274.432 108.705 273.973 107.302 273.055C105.898 272.138 104.819 270.874 104.063 269.263C103.307 267.653 102.93 265.813 102.93 263.744C102.93 261.639 103.316 259.781 104.09 258.171C104.873 256.552 105.961 255.288 107.356 254.379C108.759 253.462 110.396 253.003 112.268 253.003C113.725 253.003 115.038 253.273 116.208 253.812C117.377 254.352 118.336 255.108 119.082 256.08C119.829 257.051 120.292 258.185 120.472 259.48H117.287C117.045 258.536 116.505 257.699 115.668 256.97C114.84 256.232 113.725 255.864 112.322 255.864C111.08 255.864 109.992 256.187 109.056 256.835C108.129 257.474 107.405 258.378 106.883 259.548C106.371 260.708 106.114 262.071 106.114 263.636C106.114 265.238 106.366 266.632 106.87 267.82C107.383 269.007 108.102 269.929 109.029 270.586C109.965 271.243 111.062 271.571 112.322 271.571C113.149 271.571 113.9 271.427 114.575 271.139C115.25 270.851 115.821 270.438 116.289 269.898C116.757 269.358 117.09 268.71 117.287 267.955H120.472C120.292 269.178 119.847 270.28 119.136 271.261C118.434 272.232 117.503 273.006 116.343 273.582C115.191 274.148 113.851 274.432 112.322 274.432ZM138.19 265.526V253.273H141.375V274H138.19V270.491H137.974C137.488 271.544 136.733 272.439 135.707 273.177C134.682 273.906 133.386 274.27 131.821 274.27C130.525 274.27 129.374 273.987 128.366 273.42C127.359 272.844 126.567 271.98 125.991 270.829C125.416 269.668 125.128 268.206 125.128 266.443V253.273H128.312V266.227C128.312 267.739 128.735 268.944 129.581 269.844C130.435 270.743 131.524 271.193 132.846 271.193C133.638 271.193 134.443 270.991 135.262 270.586C136.09 270.181 136.782 269.56 137.34 268.724C137.907 267.887 138.19 266.821 138.19 265.526ZM147.208 274V253.273H150.284V256.511H150.554C150.986 255.405 151.683 254.546 152.646 253.934C153.609 253.313 154.765 253.003 156.114 253.003C157.481 253.003 158.619 253.313 159.528 253.934C160.446 254.546 161.161 255.405 161.674 256.511H161.89C162.42 255.441 163.217 254.591 164.278 253.961C165.34 253.322 166.613 253.003 168.097 253.003C169.95 253.003 171.466 253.583 172.645 254.744C173.823 255.895 174.412 257.69 174.412 260.128V274H171.228V260.128C171.228 258.598 170.809 257.505 169.973 256.849C169.136 256.192 168.151 255.864 167.017 255.864C165.56 255.864 164.431 256.304 163.63 257.186C162.83 258.059 162.429 259.165 162.429 260.506V274H159.191V259.804C159.191 258.625 158.808 257.676 158.044 256.957C157.279 256.228 156.294 255.864 155.088 255.864C154.261 255.864 153.487 256.084 152.767 256.525C152.057 256.966 151.481 257.577 151.04 258.36C150.608 259.134 150.392 260.029 150.392 261.045V274H147.208ZM188.925 274.432C186.928 274.432 185.205 273.991 183.757 273.109C182.318 272.219 181.207 270.977 180.424 269.385C179.65 267.784 179.263 265.921 179.263 263.798C179.263 261.675 179.65 259.804 180.424 258.185C181.207 256.556 182.295 255.288 183.69 254.379C185.093 253.462 186.73 253.003 188.602 253.003C189.681 253.003 190.747 253.183 191.8 253.543C192.852 253.902 193.81 254.487 194.674 255.297C195.538 256.098 196.226 257.159 196.739 258.482C197.251 259.804 197.508 261.432 197.508 263.366V264.716H181.531V261.963H194.269C194.269 260.794 194.035 259.75 193.567 258.832C193.109 257.915 192.452 257.191 191.597 256.66C190.752 256.129 189.753 255.864 188.602 255.864C187.333 255.864 186.236 256.179 185.309 256.808C184.391 257.429 183.685 258.239 183.19 259.237C182.696 260.236 182.448 261.306 182.448 262.449V264.284C182.448 265.849 182.718 267.176 183.258 268.265C183.807 269.344 184.567 270.168 185.538 270.734C186.51 271.292 187.639 271.571 188.925 271.571C189.762 271.571 190.518 271.454 191.192 271.22C191.876 270.977 192.465 270.617 192.96 270.141C193.455 269.655 193.837 269.052 194.107 268.332L197.184 269.196C196.86 270.24 196.316 271.157 195.551 271.949C194.786 272.732 193.842 273.343 192.717 273.784C191.593 274.216 190.329 274.432 188.925 274.432ZM205.537 261.531V274H202.352V253.273H205.429V256.511H205.699C206.185 255.459 206.922 254.613 207.912 253.974C208.902 253.327 210.179 253.003 211.744 253.003C213.148 253.003 214.376 253.291 215.428 253.866C216.481 254.433 217.299 255.297 217.884 256.457C218.469 257.609 218.761 259.066 218.761 260.83V274H215.577V261.045C215.577 259.417 215.154 258.149 214.308 257.24C213.463 256.322 212.302 255.864 210.827 255.864C209.81 255.864 208.902 256.084 208.101 256.525C207.309 256.966 206.684 257.609 206.225 258.455C205.766 259.3 205.537 260.326 205.537 261.531ZM233.595 253.273V255.972H222.854V253.273H233.595ZM225.984 248.307H229.169V268.062C229.169 268.962 229.299 269.637 229.56 270.087C229.83 270.527 230.172 270.824 230.586 270.977C231.009 271.121 231.454 271.193 231.922 271.193C232.273 271.193 232.56 271.175 232.785 271.139C233.01 271.094 233.19 271.058 233.325 271.031L233.973 273.892C233.757 273.973 233.456 274.054 233.069 274.135C232.682 274.225 232.192 274.27 231.598 274.27C230.698 274.27 229.817 274.076 228.953 273.69C228.098 273.303 227.388 272.714 226.821 271.922C226.263 271.13 225.984 270.132 225.984 268.926V248.307Z" fill="white"/>
<path d="M859.875 275H851.347V247.364H860.253C862.934 247.364 865.228 247.917 867.135 249.023C869.042 250.121 870.504 251.7 871.521 253.76C872.537 255.811 873.045 258.267 873.045 261.128C873.045 264.007 872.533 266.485 871.507 268.563C870.482 270.632 868.988 272.225 867.027 273.34C865.066 274.447 862.682 275 859.875 275ZM854.693 272.031H859.659C861.944 272.031 863.838 271.59 865.34 270.709C866.843 269.827 867.963 268.572 868.7 266.944C869.438 265.316 869.807 263.377 869.807 261.128C869.807 258.897 869.442 256.976 868.714 255.366C867.985 253.746 866.897 252.505 865.448 251.641C864 250.769 862.196 250.332 860.037 250.332H854.693V272.031ZM886.648 275.432C884.777 275.432 883.135 274.987 881.722 274.096C880.319 273.205 879.221 271.959 878.43 270.358C877.647 268.757 877.256 266.885 877.256 264.744C877.256 262.585 877.647 260.701 878.43 259.09C879.221 257.48 880.319 256.229 881.722 255.339C883.135 254.448 884.777 254.003 886.648 254.003C888.519 254.003 890.156 254.448 891.56 255.339C892.972 256.229 894.07 257.48 894.852 259.09C895.644 260.701 896.04 262.585 896.04 264.744C896.04 266.885 895.644 268.757 894.852 270.358C894.07 271.959 892.972 273.205 891.56 274.096C890.156 274.987 888.519 275.432 886.648 275.432ZM886.648 272.571C888.069 272.571 889.239 272.207 890.156 271.478C891.074 270.749 891.753 269.791 892.194 268.604C892.635 267.416 892.855 266.13 892.855 264.744C892.855 263.359 892.635 262.068 892.194 260.871C891.753 259.675 891.074 258.708 890.156 257.97C889.239 257.232 888.069 256.864 886.648 256.864C885.226 256.864 884.057 257.232 883.139 257.97C882.222 258.708 881.542 259.675 881.102 260.871C880.661 262.068 880.44 263.359 880.44 264.744C880.44 266.13 880.661 267.416 881.102 268.604C881.542 269.791 882.222 270.749 883.139 271.478C884.057 272.207 885.226 272.571 886.648 272.571ZM909.322 275.432C907.378 275.432 905.705 274.973 904.302 274.055C902.898 273.138 901.819 271.874 901.063 270.263C900.307 268.653 899.93 266.813 899.93 264.744C899.93 262.639 900.316 260.781 901.09 259.171C901.873 257.552 902.961 256.288 904.356 255.379C905.759 254.462 907.396 254.003 909.268 254.003C910.725 254.003 912.038 254.273 913.208 254.812C914.377 255.352 915.336 256.108 916.082 257.08C916.829 258.051 917.292 259.185 917.472 260.48H914.287C914.045 259.536 913.505 258.699 912.668 257.97C911.84 257.232 910.725 256.864 909.322 256.864C908.08 256.864 906.992 257.187 906.056 257.835C905.129 258.474 904.405 259.378 903.883 260.548C903.371 261.708 903.114 263.071 903.114 264.636C903.114 266.238 903.366 267.632 903.87 268.82C904.383 270.007 905.102 270.929 906.029 271.586C906.965 272.243 908.062 272.571 909.322 272.571C910.149 272.571 910.9 272.427 911.575 272.139C912.25 271.851 912.821 271.438 913.289 270.898C913.757 270.358 914.09 269.71 914.287 268.955H917.472C917.292 270.178 916.847 271.28 916.136 272.261C915.434 273.232 914.503 274.006 913.343 274.582C912.191 275.148 910.851 275.432 909.322 275.432ZM935.19 266.526V254.273H938.375V275H935.19V271.491H934.974C934.488 272.544 933.733 273.439 932.707 274.177C931.682 274.906 930.386 275.27 928.821 275.27C927.525 275.27 926.374 274.987 925.366 274.42C924.359 273.844 923.567 272.98 922.991 271.829C922.416 270.668 922.128 269.206 922.128 267.443V254.273H925.312V267.227C925.312 268.739 925.735 269.944 926.581 270.844C927.435 271.743 928.524 272.193 929.846 272.193C930.638 272.193 931.443 271.991 932.262 271.586C933.09 271.181 933.782 270.56 934.34 269.724C934.907 268.887 935.19 267.821 935.19 266.526ZM944.208 275V254.273H947.284V257.511H947.554C947.986 256.405 948.683 255.546 949.646 254.934C950.609 254.313 951.765 254.003 953.114 254.003C954.481 254.003 955.619 254.313 956.528 254.934C957.446 255.546 958.161 256.405 958.674 257.511H958.89C959.42 256.441 960.217 255.591 961.278 254.961C962.34 254.322 963.613 254.003 965.097 254.003C966.95 254.003 968.466 254.583 969.645 255.744C970.823 256.895 971.412 258.69 971.412 261.128V275H968.228V261.128C968.228 259.598 967.809 258.505 966.973 257.849C966.136 257.192 965.151 256.864 964.017 256.864C962.56 256.864 961.431 257.304 960.63 258.186C959.83 259.059 959.429 260.165 959.429 261.506V275H956.191V260.804C956.191 259.625 955.808 258.676 955.044 257.957C954.279 257.228 953.294 256.864 952.088 256.864C951.261 256.864 950.487 257.084 949.767 257.525C949.057 257.966 948.481 258.577 948.04 259.36C947.608 260.134 947.392 261.029 947.392 262.045V275H944.208ZM985.925 275.432C983.928 275.432 982.205 274.991 980.757 274.109C979.318 273.219 978.207 271.977 977.424 270.385C976.65 268.784 976.263 266.921 976.263 264.798C976.263 262.675 976.65 260.804 977.424 259.185C978.207 257.556 979.295 256.288 980.69 255.379C982.093 254.462 983.73 254.003 985.602 254.003C986.681 254.003 987.747 254.183 988.8 254.543C989.852 254.902 990.81 255.487 991.674 256.297C992.538 257.098 993.226 258.159 993.739 259.482C994.251 260.804 994.508 262.432 994.508 264.366V265.716H978.531V262.963H991.269C991.269 261.794 991.035 260.75 990.567 259.832C990.109 258.915 989.452 258.191 988.597 257.66C987.752 257.129 986.753 256.864 985.602 256.864C984.333 256.864 983.236 257.179 982.309 257.808C981.391 258.429 980.685 259.239 980.19 260.237C979.696 261.236 979.448 262.306 979.448 263.449V265.284C979.448 266.849 979.718 268.176 980.258 269.265C980.807 270.344 981.567 271.168 982.538 271.734C983.51 272.292 984.639 272.571 985.925 272.571C986.762 272.571 987.518 272.454 988.192 272.22C988.876 271.977 989.465 271.617 989.96 271.141C990.455 270.655 990.837 270.052 991.107 269.332L994.184 270.196C993.86 271.24 993.316 272.157 992.551 272.949C991.786 273.732 990.842 274.343 989.717 274.784C988.593 275.216 987.329 275.432 985.925 275.432ZM1002.54 262.531V275H999.352V254.273H1002.43V257.511H1002.7C1003.18 256.459 1003.92 255.613 1004.91 254.974C1005.9 254.327 1007.18 254.003 1008.74 254.003C1010.15 254.003 1011.38 254.291 1012.43 254.866C1013.48 255.433 1014.3 256.297 1014.88 257.457C1015.47 258.609 1015.76 260.066 1015.76 261.83V275H1012.58V262.045C1012.58 260.417 1012.15 259.149 1011.31 258.24C1010.46 257.322 1009.3 256.864 1007.83 256.864C1006.81 256.864 1005.9 257.084 1005.1 257.525C1004.31 257.966 1003.68 258.609 1003.23 259.455C1002.77 260.3 1002.54 261.326 1002.54 262.531ZM1030.59 254.273V256.972H1019.85V254.273H1030.59ZM1022.98 249.307H1026.17V269.062C1026.17 269.962 1026.3 270.637 1026.56 271.087C1026.83 271.527 1027.17 271.824 1027.59 271.977C1028.01 272.121 1028.45 272.193 1028.92 272.193C1029.27 272.193 1029.56 272.175 1029.79 272.139C1030.01 272.094 1030.19 272.058 1030.33 272.031L1030.97 274.892C1030.76 274.973 1030.46 275.054 1030.07 275.135C1029.68 275.225 1029.19 275.27 1028.6 275.27C1027.7 275.27 1026.82 275.076 1025.95 274.69C1025.1 274.303 1024.39 273.714 1023.82 272.922C1023.26 272.13 1022.98 271.132 1022.98 269.926V249.307Z" fill="white"/>
<g filter="url(#filter3_d_3_46)">
<path d="M1068 230H826C823.791 230 822 231.791 822 234V286C822 288.209 823.791 290 826 290H1068C1070.21 290 1072 288.209 1072 286V234C1072 231.791 1070.21 230 1068 230Z" fill="#5D768D"/>
</g>
<path d="M810.518 245.012C808.782 243.957 807.431 242.429 806.445 240.437C805.469 238.435 804.976 236.059 804.976 233.298C804.976 230.537 805.469 228.16 806.445 226.159C807.421 224.157 808.782 222.639 810.518 221.583C812.253 220.528 814.245 220.006 816.493 220.006C818.741 220.006 820.733 220.528 822.469 221.583C824.204 222.639 825.555 224.167 826.541 226.159C827.517 228.16 828.01 230.537 828.01 233.298C828.01 236.059 827.517 238.435 826.541 240.437C825.565 242.438 824.204 243.957 822.469 245.012C820.733 246.067 818.741 246.59 816.493 246.59C814.245 246.59 812.253 246.067 810.518 245.012ZM819.402 233.298C819.402 229.008 818.436 226.869 816.493 226.869C814.551 226.869 813.584 229.008 813.584 233.298C813.584 237.587 814.551 239.727 816.493 239.727C818.426 239.727 819.402 237.587 819.402 233.298Z" fill="#5D768D"/>
<path d="M816.493 247.576C814.068 247.576 811.888 246.994 810.005 245.85C808.122 244.706 806.623 243.03 805.568 240.861C804.523 238.741 804 236.187 804 233.288C804 230.389 804.532 227.845 805.568 225.715C806.623 223.556 808.122 221.879 810.005 220.726C811.888 219.582 814.068 219 816.493 219C818.919 219 821.098 219.582 822.982 220.726C824.865 221.869 826.364 223.556 827.419 225.715C828.464 227.835 828.987 230.389 828.987 233.288C828.987 236.187 828.454 238.731 827.419 240.861C826.364 243.02 824.865 244.697 822.982 245.85C821.098 246.994 818.919 247.576 816.493 247.576ZM816.493 220.992C814.432 220.992 812.598 221.475 811.031 222.431C809.473 223.378 808.23 224.788 807.333 226.602C806.426 228.456 805.962 230.714 805.962 233.308C805.962 235.901 806.426 238.159 807.333 240.013C808.22 241.827 809.473 243.237 811.031 244.184C812.598 245.14 814.432 245.623 816.493 245.623C818.554 245.623 820.388 245.14 821.956 244.184C823.514 243.237 824.756 241.827 825.654 240.013C826.561 238.159 827.024 235.911 827.024 233.308C827.024 230.714 826.561 228.456 825.654 226.602C824.766 224.788 823.514 223.378 821.956 222.431C820.388 221.475 818.554 220.992 816.493 220.992ZM816.493 240.713C813.91 240.713 812.598 238.218 812.598 233.298C812.598 228.377 813.91 225.883 816.493 225.883C819.077 225.883 820.388 228.377 820.388 233.298C820.388 238.218 819.077 240.713 816.493 240.713ZM816.493 227.855C814.827 227.855 814.571 231.267 814.571 233.298C814.571 235.329 814.817 238.741 816.493 238.741C818.16 238.741 818.416 235.329 818.416 233.298C818.416 231.267 818.16 227.855 816.493 227.855Z" fill="white"/>
<path d="M846.371 233.278C847.426 234.55 847.949 236.079 847.949 237.873C847.949 239.402 847.535 240.821 846.697 242.143C845.859 243.464 844.577 244.539 842.831 245.357C841.086 246.176 838.917 246.59 836.333 246.59C834.539 246.59 832.754 246.393 830.979 246.008C829.194 245.624 827.646 245.052 826.315 244.302L829.224 237.982C830.269 238.583 831.383 239.047 832.586 239.362C833.789 239.678 834.943 239.835 836.057 239.835C837.053 239.835 837.852 239.668 838.453 239.323C839.055 238.987 839.36 238.504 839.36 237.873C839.36 236.71 838.355 236.128 836.343 236.128H832.961V230.862L836.698 227.046H827.617V220.578H846.578V225.843L841.855 230.636C843.808 231.129 845.316 232.006 846.371 233.278Z" fill="#5D768D"/>
<path d="M836.323 247.576C834.469 247.576 832.596 247.369 830.752 246.974C828.878 246.57 827.222 245.959 825.812 245.16L825.023 244.716L828.76 236.581L829.697 237.124C830.653 237.686 831.708 238.11 832.813 238.406C833.927 238.701 835.002 238.849 836.027 238.849C836.846 238.849 837.487 238.721 837.94 238.465C838.315 238.258 838.345 238.06 838.345 237.873C838.345 237.37 837.664 237.114 836.313 237.114H831.945V230.458L834.321 228.032H826.601V219.592H847.535V226.248L843.65 230.192C845.069 230.764 846.233 231.582 847.111 232.647C848.314 234.097 848.915 235.852 848.915 237.873C848.915 239.579 848.442 241.196 847.505 242.665C846.568 244.144 845.129 245.347 843.226 246.245C841.382 247.132 839.055 247.576 836.323 247.576ZM827.587 243.858C828.642 244.361 829.845 244.756 831.176 245.042C832.882 245.416 834.617 245.604 836.323 245.604C838.759 245.604 840.8 245.219 842.407 244.46C843.975 243.72 845.129 242.764 845.858 241.61C846.598 240.437 846.963 239.214 846.963 237.873C846.963 236.305 846.519 235.004 845.612 233.909C844.705 232.815 843.354 232.036 841.608 231.602L839.932 231.188L845.582 225.449V221.574H828.592V226.07H839.035L833.927 231.276V235.152H836.323C839.804 235.152 840.327 236.857 840.327 237.883C840.327 238.869 839.824 239.687 838.916 240.2C837.398 241.058 834.824 240.989 832.32 240.328C831.403 240.082 830.515 239.757 829.667 239.352L827.587 243.858Z" fill="white"/>
<path d="M903.394 267.648C903.394 267.995 903.377 268.402 903.342 268.87C903.307 269.321 903.264 269.789 903.212 270.274C903.16 270.759 903.099 271.236 903.03 271.704C902.978 272.172 902.926 272.579 902.874 272.926H902.198L901.106 269H888.288L887.196 272.926H886.546C886.459 272.597 886.381 272.198 886.312 271.73C886.26 271.262 886.208 270.777 886.156 270.274C886.121 269.789 886.087 269.321 886.052 268.87C886.017 268.402 886 267.995 886 267.648H888.158C888.609 266.92 889.033 265.993 889.432 264.866C889.831 263.722 890.169 262.474 890.446 261.122C890.741 259.753 890.975 258.314 891.148 256.806C891.321 255.298 891.408 253.807 891.408 252.334C890.957 252.247 890.507 252.143 890.056 252.022C889.623 251.901 889.189 251.745 888.756 251.554V250.8H902.562V251.554C902.267 251.675 901.947 251.797 901.6 251.918C901.253 252.022 900.863 252.117 900.43 252.204V267.648H903.394ZM897.934 267.648V252.152H892.916C892.812 254.284 892.639 256.191 892.396 257.872C892.171 259.536 891.902 261.009 891.59 262.292C891.295 263.557 890.983 264.632 890.654 265.516C890.342 266.4 890.056 267.111 889.796 267.648H897.934ZM904.459 262.5C904.459 261.408 904.597 260.446 904.875 259.614C905.169 258.765 905.585 258.054 906.123 257.482C906.66 256.893 907.301 256.451 908.047 256.156C908.809 255.844 909.65 255.688 910.569 255.688C911.643 255.688 912.571 255.853 913.351 256.182C914.131 256.511 914.763 256.979 915.249 257.586C915.751 258.175 916.115 258.886 916.341 259.718C916.583 260.55 916.705 261.477 916.705 262.5C916.705 264.684 916.15 266.365 915.041 267.544C913.931 268.723 912.441 269.312 910.569 269.312C909.529 269.312 908.627 269.156 907.865 268.844C907.102 268.515 906.469 268.055 905.967 267.466C905.464 266.859 905.083 266.14 904.823 265.308C904.58 264.459 904.459 263.523 904.459 262.5ZM906.955 262.5C906.955 263.28 907.024 264.017 907.163 264.71C907.319 265.403 907.553 266.01 907.865 266.53C908.194 267.033 908.619 267.431 909.139 267.726C909.659 268.021 910.283 268.168 911.011 268.168C911.947 268.168 912.709 267.709 913.299 266.79C913.905 265.871 914.209 264.441 914.209 262.5C914.209 261.703 914.131 260.966 913.975 260.29C913.836 259.597 913.611 258.999 913.299 258.496C912.987 257.976 912.588 257.569 912.103 257.274C911.617 256.979 911.037 256.832 910.361 256.832C909.338 256.832 908.515 257.291 907.891 258.21C907.267 259.129 906.955 260.559 906.955 262.5ZM926.214 256H931.232V256.676C931.058 256.815 930.824 256.936 930.53 257.04C930.252 257.144 929.906 257.265 929.49 257.404C928.9 258.115 928.276 258.834 927.618 259.562C926.959 260.29 926.266 261.018 925.538 261.746C925.919 262.162 926.318 262.621 926.734 263.124C927.167 263.627 927.6 264.147 928.034 264.684C928.467 265.221 928.9 265.75 929.334 266.27C929.767 266.79 930.192 267.275 930.608 267.726L931.83 268.35V269H928.788L927.956 268.402C927.176 267.466 926.465 266.53 925.824 265.594C925.182 264.658 924.532 263.739 923.874 262.838H922.834V267.726C923.18 267.813 923.492 267.908 923.77 268.012C924.064 268.099 924.316 268.211 924.524 268.35V269H918.778V268.35C919.246 268.073 919.818 267.865 920.494 267.726V257.3C919.887 257.179 919.315 256.971 918.778 256.676V256H924.108V256.676C923.934 256.797 923.744 256.91 923.536 257.014C923.345 257.118 923.111 257.213 922.834 257.3V262.162L924.03 261.902C924.723 261.105 925.382 260.359 926.006 259.666C926.63 258.973 927.21 258.219 927.748 257.404C927.453 257.283 927.176 257.17 926.916 257.066C926.673 256.945 926.439 256.815 926.214 256.676V256ZM932.922 257.3C932.662 257.231 932.419 257.144 932.194 257.04C931.986 256.936 931.769 256.815 931.544 256.676V256H936.978V256.65C936.614 256.893 936.12 257.109 935.496 257.3L938.824 264.996L939.318 266.608H939.37L939.76 264.97L942.23 257.3C941.71 257.196 941.233 256.988 940.8 256.676V256H945.246V256.676C944.882 256.919 944.388 257.127 943.764 257.3L939.708 269C939.292 270.109 938.893 271.002 938.512 271.678C938.148 272.371 937.775 272.917 937.394 273.316C937.03 273.715 936.649 274.001 936.25 274.174C935.869 274.365 935.453 274.503 935.002 274.59C934.811 274.261 934.638 273.897 934.482 273.498C934.343 273.099 934.222 272.718 934.118 272.354L934.456 271.73H937.16C937.264 271.591 937.351 271.453 937.42 271.314C937.507 271.193 937.593 271.037 937.68 270.846C937.767 270.655 937.862 270.413 937.966 270.118C938.07 269.823 938.191 269.451 938.33 269L932.922 257.3ZM950.339 269H945.763V268.35C946.335 268.073 946.907 267.865 947.479 267.726L947.869 257.56C947.505 257.421 947.184 257.274 946.907 257.118C946.63 256.962 946.378 256.815 946.153 256.676V256H951.223L953.901 263.592L954.395 265.386H954.473L955.019 263.566L957.801 256H962.715V256.676C962.49 256.815 962.238 256.936 961.961 257.04C961.684 257.144 961.363 257.231 960.999 257.3L961.519 267.726C962.091 267.83 962.663 268.038 963.235 268.35V269H957.723V268.35C957.896 268.263 958.104 268.168 958.347 268.064C958.59 267.96 958.902 267.847 959.283 267.726L958.763 257.196H958.555L954.291 269H953.589L949.377 257.196H949.169L948.779 267.726C949.403 267.917 949.923 268.125 950.339 268.35V269ZM975.647 267.18C975.508 267.475 975.291 267.752 974.997 268.012C974.702 268.272 974.364 268.497 973.983 268.688C973.601 268.879 973.185 269.026 972.735 269.13C972.284 269.251 971.825 269.312 971.357 269.312C970.334 269.312 969.433 269.156 968.653 268.844C967.873 268.515 967.223 268.055 966.703 267.466C966.183 266.859 965.784 266.14 965.507 265.308C965.247 264.476 965.117 263.54 965.117 262.5C965.117 260.281 965.628 258.591 966.651 257.43C967.673 256.269 969.121 255.688 970.993 255.688C971.599 255.688 972.197 255.775 972.787 255.948C973.376 256.104 973.896 256.373 974.347 256.754C974.815 257.135 975.187 257.647 975.465 258.288C975.759 258.912 975.907 259.692 975.907 260.628C975.907 260.923 975.889 261.226 975.855 261.538C975.837 261.833 975.794 262.153 975.725 262.5H967.613C967.613 263.228 967.699 263.913 967.873 264.554C968.063 265.178 968.341 265.724 968.705 266.192C969.069 266.66 969.528 267.033 970.083 267.31C970.637 267.57 971.287 267.7 972.033 267.7C972.639 267.7 973.255 267.613 973.879 267.44C974.503 267.267 974.971 267.041 975.283 266.764L975.647 267.18ZM970.889 256.832C969.901 256.832 969.147 257.17 968.627 257.846C968.107 258.505 967.795 259.675 967.691 261.356H973.411C973.428 261.2 973.437 261.053 973.437 260.914C973.454 260.758 973.463 260.611 973.463 260.472C973.463 259.363 973.255 258.479 972.839 257.82C972.423 257.161 971.773 256.832 970.889 256.832ZM983.731 269H978.141V268.35C978.384 268.211 978.652 268.099 978.947 268.012C979.242 267.908 979.545 267.813 979.857 267.726V257.3C979.545 257.213 979.242 257.127 978.947 257.04C978.652 256.936 978.384 256.815 978.141 256.676V256H983.731V256.676C983.332 256.919 982.821 257.127 982.197 257.3V261.85H987.969V257.3C987.362 257.196 986.842 256.988 986.409 256.676V256H992.025V256.676C991.557 256.971 990.985 257.179 990.309 257.3V267.726C990.621 267.795 990.924 267.873 991.219 267.96C991.514 268.047 991.782 268.177 992.025 268.35V269H986.409V268.35C986.842 268.038 987.362 267.83 987.969 267.726V262.994H982.197V267.726C982.544 267.795 982.838 267.882 983.081 267.986C983.324 268.09 983.54 268.211 983.731 268.35V269ZM1002.38 269H996.609V268.35C997.146 268.073 997.718 267.865 998.325 267.726V257.144H995.907L994.763 260.264H994.087C994 259.519 993.931 258.791 993.879 258.08C993.827 257.352 993.792 256.659 993.775 256H1005.21C1005.2 256.624 1005.16 257.309 1005.11 258.054C1005.08 258.782 1005.01 259.519 1004.9 260.264H1004.23L1003.08 257.144H1000.66V267.726C1001.48 267.934 1002.05 268.142 1002.38 268.35V269Z" fill="white"/>
<rect x="444" y="13" width="188" height="43" fill="#009CC4"/>
<path d="M470.347 47V19.3636H479.685C481.853 19.3636 483.625 19.755 485.001 20.5376C486.387 21.3113 487.412 22.3594 488.078 23.6818C488.744 25.0043 489.077 26.4796 489.077 28.108C489.077 29.7363 488.744 31.2161 488.078 32.5476C487.421 33.879 486.405 34.9406 485.028 35.7322C483.652 36.5149 481.889 36.9062 479.739 36.9062H473.045V33.9375H479.631C481.115 33.9375 482.307 33.6811 483.207 33.1683C484.106 32.6555 484.759 31.9628 485.163 31.0902C485.577 30.2086 485.784 29.2145 485.784 28.108C485.784 27.0014 485.577 26.0118 485.163 25.1392C484.759 24.2666 484.102 23.5829 483.193 23.0881C482.285 22.5843 481.079 22.3324 479.577 22.3324H473.693V47H470.347ZM494.036 47V26.2727H497.113V29.4034H497.328C497.706 28.3778 498.39 27.5457 499.38 26.907C500.369 26.2682 501.485 25.9489 502.726 25.9489C502.96 25.9489 503.252 25.9534 503.603 25.9624C503.954 25.9714 504.22 25.9848 504.4 26.0028V29.2415C504.292 29.2145 504.044 29.174 503.657 29.12C503.279 29.0571 502.879 29.0256 502.456 29.0256C501.449 29.0256 500.549 29.237 499.757 29.6598C498.975 30.0736 498.354 30.6494 497.895 31.3871C497.445 32.1158 497.221 32.9479 497.221 33.8835V47H494.036ZM515.964 47.4318C514.093 47.4318 512.451 46.9865 511.039 46.0959C509.635 45.2053 508.538 43.9593 507.746 42.358C506.963 40.7566 506.572 38.8854 506.572 36.7443C506.572 34.5852 506.963 32.7005 507.746 31.0902C508.538 29.4799 509.635 28.2294 511.039 27.3388C512.451 26.4482 514.093 26.0028 515.964 26.0028C517.835 26.0028 519.473 26.4482 520.876 27.3388C522.288 28.2294 523.386 29.4799 524.169 31.0902C524.96 32.7005 525.356 34.5852 525.356 36.7443C525.356 38.8854 524.96 40.7566 524.169 42.358C523.386 43.9593 522.288 45.2053 520.876 46.0959C519.473 46.9865 517.835 47.4318 515.964 47.4318ZM515.964 44.571C517.386 44.571 518.555 44.2067 519.473 43.478C520.39 42.7493 521.069 41.7912 521.51 40.6037C521.951 39.4162 522.172 38.1297 522.172 36.7443C522.172 35.3589 521.951 34.0679 521.51 32.8714C521.069 31.675 520.39 30.7079 519.473 29.9702C518.555 29.2325 517.386 28.8636 515.964 28.8636C514.543 28.8636 513.373 29.2325 512.456 29.9702C511.538 30.7079 510.859 31.675 510.418 32.8714C509.977 34.0679 509.757 35.3589 509.757 36.7443C509.757 38.1297 509.977 39.4162 510.418 40.6037C510.859 41.7912 511.538 42.7493 512.456 43.478C513.373 44.2067 514.543 44.571 515.964 44.571ZM530.218 26.2727H533.402V48.5114C533.402 49.7888 533.182 50.8954 532.741 51.831C532.309 52.7666 531.652 53.4908 530.771 54.0036C529.898 54.5163 528.796 54.7727 527.465 54.7727C527.357 54.7727 527.249 54.7727 527.141 54.7727C527.033 54.7727 526.925 54.7727 526.817 54.7727V51.804C526.925 51.804 527.024 51.804 527.114 51.804C527.204 51.804 527.303 51.804 527.411 51.804C528.382 51.804 529.093 51.5161 529.543 50.9403C529.993 50.3736 530.218 49.5639 530.218 48.5114V26.2727ZM531.783 22.8182C531.162 22.8182 530.627 22.6068 530.177 22.1839C529.736 21.7611 529.516 21.2528 529.516 20.6591C529.516 20.0653 529.736 19.5571 530.177 19.1342C530.627 18.7114 531.162 18.5 531.783 18.5C532.404 18.5 532.934 18.7114 533.375 19.1342C533.825 19.5571 534.05 20.0653 534.05 20.6591C534.05 21.2528 533.825 21.7611 533.375 22.1839C532.934 22.6068 532.404 22.8182 531.783 22.8182ZM547.925 47.4318C545.928 47.4318 544.205 46.991 542.757 46.1094C541.318 45.2188 540.207 43.9773 539.424 42.3849C538.65 40.7836 538.263 38.9214 538.263 36.7983C538.263 34.6752 538.65 32.804 539.424 31.1847C540.207 29.5563 541.295 28.2879 542.69 27.3793C544.093 26.4616 545.73 26.0028 547.602 26.0028C548.681 26.0028 549.747 26.1828 550.8 26.5426C551.852 26.9025 552.81 27.4872 553.674 28.2969C554.538 29.0975 555.226 30.1591 555.739 31.4815C556.251 32.804 556.508 34.4323 556.508 36.3665V37.7159H540.531V34.9631H553.269C553.269 33.7936 553.035 32.75 552.567 31.8324C552.109 30.9148 551.452 30.1906 550.597 29.6598C549.752 29.129 548.753 28.8636 547.602 28.8636C546.333 28.8636 545.236 29.1785 544.309 29.8082C543.391 30.429 542.685 31.2386 542.19 32.2372C541.696 33.2358 541.448 34.3063 541.448 35.4489V37.2841C541.448 38.8494 541.718 40.1764 542.258 41.2649C542.807 42.3445 543.567 43.1676 544.538 43.7344C545.51 44.2921 546.639 44.571 547.925 44.571C548.762 44.571 549.518 44.4541 550.192 44.2202C550.876 43.9773 551.465 43.6174 551.96 43.1406C552.455 42.6548 552.837 42.0521 553.107 41.3324L556.184 42.196C555.86 43.2396 555.316 44.1572 554.551 44.9489C553.786 45.7315 552.842 46.3433 551.717 46.7841C550.593 47.2159 549.329 47.4318 547.925 47.4318ZM569.773 47.4318C567.83 47.4318 566.156 46.973 564.753 46.0554C563.349 45.1378 562.27 43.8738 561.514 42.2635C560.759 40.6532 560.381 38.8134 560.381 36.7443C560.381 34.6392 560.768 32.7815 561.541 31.1712C562.324 29.5518 563.412 28.2879 564.807 27.3793C566.21 26.4616 567.848 26.0028 569.719 26.0028C571.176 26.0028 572.49 26.2727 573.659 26.8125C574.829 27.3523 575.787 28.108 576.533 29.0795C577.28 30.0511 577.743 31.1847 577.923 32.4801H574.739C574.496 31.5355 573.956 30.6989 573.119 29.9702C572.292 29.2325 571.176 28.8636 569.773 28.8636C568.531 28.8636 567.443 29.1875 566.507 29.8352C565.58 30.474 564.856 31.3781 564.335 32.5476C563.822 33.7081 563.565 35.071 563.565 36.6364C563.565 38.2377 563.817 39.6321 564.321 40.8196C564.834 42.0071 565.554 42.9292 566.48 43.5859C567.416 44.2427 568.513 44.571 569.773 44.571C570.6 44.571 571.352 44.4271 572.026 44.1392C572.701 43.8513 573.272 43.4375 573.74 42.8977C574.208 42.358 574.541 41.7102 574.739 40.9545H577.923C577.743 42.178 577.298 43.2801 576.587 44.2607C575.886 45.2322 574.955 46.0059 573.794 46.5817C572.643 47.1484 571.302 47.4318 569.773 47.4318ZM591.593 26.2727V28.9716H580.852V26.2727H591.593ZM583.982 21.3068H587.167V41.0625C587.167 41.9621 587.297 42.6368 587.558 43.0866C587.828 43.5275 588.17 43.8243 588.584 43.9773C589.007 44.1212 589.452 44.1932 589.92 44.1932C590.271 44.1932 590.558 44.1752 590.783 44.1392C591.008 44.0942 591.188 44.0582 591.323 44.0312L591.971 46.892C591.755 46.973 591.454 47.054 591.067 47.1349C590.68 47.2249 590.19 47.2699 589.596 47.2699C588.696 47.2699 587.815 47.0765 586.951 46.6896C586.096 46.3028 585.386 45.7135 584.819 44.9219C584.261 44.1302 583.982 43.1316 583.982 41.9261V21.3068ZM610.694 30.9148L607.833 31.7244C607.654 31.2476 607.388 30.7843 607.037 30.3345C606.695 29.8757 606.228 29.4979 605.634 29.201C605.04 28.9041 604.28 28.7557 603.353 28.7557C602.085 28.7557 601.028 29.0481 600.182 29.6328C599.346 30.2086 598.927 30.9418 598.927 31.8324C598.927 32.6241 599.215 33.2493 599.791 33.7081C600.367 34.1669 601.266 34.5492 602.49 34.8551L605.566 35.6108C607.42 36.0606 608.801 36.7488 609.709 37.6754C610.618 38.593 611.072 39.776 611.072 41.2244C611.072 42.4119 610.73 43.4735 610.047 44.4091C609.372 45.3447 608.427 46.0824 607.213 46.6222C605.998 47.1619 604.586 47.4318 602.975 47.4318C600.861 47.4318 599.112 46.973 597.726 46.0554C596.341 45.1378 595.464 43.7973 595.095 42.0341L598.118 41.2784C598.405 42.3939 598.95 43.2306 599.75 43.7884C600.56 44.3461 601.617 44.625 602.922 44.625C604.406 44.625 605.584 44.3101 606.457 43.6804C607.339 43.0417 607.779 42.277 607.779 41.3864C607.779 40.6667 607.528 40.0639 607.024 39.5781C606.52 39.0833 605.746 38.7145 604.703 38.4716L601.248 37.6619C599.35 37.2121 597.956 36.5149 597.065 35.5703C596.183 34.6167 595.743 33.4247 595.743 31.9943C595.743 30.8248 596.071 29.7902 596.728 28.8906C597.393 27.991 598.297 27.2848 599.44 26.772C600.592 26.2592 601.896 26.0028 603.353 26.0028C605.404 26.0028 607.015 26.4527 608.184 27.3523C609.363 28.2519 610.199 29.4394 610.694 30.9148Z" fill="white"/>
<rect x="874" y="237" width="159" height="48" fill="#5D768D"/>
<path d="M873.875 274H865.347V246.364H874.253C876.934 246.364 879.228 246.917 881.135 248.023C883.042 249.121 884.504 250.7 885.521 252.76C886.537 254.811 887.045 257.267 887.045 260.128C887.045 263.007 886.533 265.485 885.507 267.563C884.482 269.632 882.988 271.225 881.027 272.34C879.066 273.447 876.682 274 873.875 274ZM868.693 271.031H873.659C875.944 271.031 877.838 270.59 879.34 269.709C880.843 268.827 881.963 267.572 882.7 265.944C883.438 264.316 883.807 262.377 883.807 260.128C883.807 257.897 883.442 255.976 882.714 254.366C881.985 252.746 880.897 251.505 879.448 250.641C878 249.769 876.196 249.332 874.037 249.332H868.693V271.031ZM900.648 274.432C898.777 274.432 897.135 273.987 895.722 273.096C894.319 272.205 893.221 270.959 892.43 269.358C891.647 267.757 891.256 265.885 891.256 263.744C891.256 261.585 891.647 259.701 892.43 258.09C893.221 256.48 894.319 255.229 895.722 254.339C897.135 253.448 898.777 253.003 900.648 253.003C902.519 253.003 904.156 253.448 905.56 254.339C906.972 255.229 908.07 256.48 908.852 258.09C909.644 259.701 910.04 261.585 910.04 263.744C910.04 265.885 909.644 267.757 908.852 269.358C908.07 270.959 906.972 272.205 905.56 273.096C904.156 273.987 902.519 274.432 900.648 274.432ZM900.648 271.571C902.069 271.571 903.239 271.207 904.156 270.478C905.074 269.749 905.753 268.791 906.194 267.604C906.635 266.416 906.855 265.13 906.855 263.744C906.855 262.359 906.635 261.068 906.194 259.871C905.753 258.675 905.074 257.708 904.156 256.97C903.239 256.232 902.069 255.864 900.648 255.864C899.226 255.864 898.057 256.232 897.139 256.97C896.222 257.708 895.542 258.675 895.102 259.871C894.661 261.068 894.44 262.359 894.44 263.744C894.44 265.13 894.661 266.416 895.102 267.604C895.542 268.791 896.222 269.749 897.139 270.478C898.057 271.207 899.226 271.571 900.648 271.571ZM923.322 274.432C921.378 274.432 919.705 273.973 918.302 273.055C916.898 272.138 915.819 270.874 915.063 269.263C914.307 267.653 913.93 265.813 913.93 263.744C913.93 261.639 914.316 259.781 915.09 258.171C915.873 256.552 916.961 255.288 918.356 254.379C919.759 253.462 921.396 253.003 923.268 253.003C924.725 253.003 926.038 253.273 927.208 253.812C928.377 254.352 929.336 255.108 930.082 256.08C930.829 257.051 931.292 258.185 931.472 259.48H928.287C928.045 258.536 927.505 257.699 926.668 256.97C925.84 256.232 924.725 255.864 923.322 255.864C922.08 255.864 920.992 256.187 920.056 256.835C919.129 257.474 918.405 258.378 917.883 259.548C917.371 260.708 917.114 262.071 917.114 263.636C917.114 265.238 917.366 266.632 917.87 267.82C918.383 269.007 919.102 269.929 920.029 270.586C920.965 271.243 922.062 271.571 923.322 271.571C924.149 271.571 924.9 271.427 925.575 271.139C926.25 270.851 926.821 270.438 927.289 269.898C927.757 269.358 928.09 268.71 928.287 267.955H931.472C931.292 269.178 930.847 270.28 930.136 271.261C929.434 272.232 928.503 273.006 927.343 273.582C926.191 274.148 924.851 274.432 923.322 274.432ZM949.19 265.526V253.273H952.375V274H949.19V270.491H948.974C948.488 271.544 947.733 272.439 946.707 273.177C945.682 273.906 944.386 274.27 942.821 274.27C941.525 274.27 940.374 273.987 939.366 273.42C938.359 272.844 937.567 271.98 936.991 270.829C936.416 269.668 936.128 268.206 936.128 266.443V253.273H939.312V266.227C939.312 267.739 939.735 268.944 940.581 269.844C941.435 270.743 942.524 271.193 943.846 271.193C944.638 271.193 945.443 270.991 946.262 270.586C947.09 270.181 947.782 269.56 948.34 268.724C948.907 267.887 949.19 266.821 949.19 265.526ZM958.208 274V253.273H961.284V256.511H961.554C961.986 255.405 962.683 254.546 963.646 253.934C964.609 253.313 965.765 253.003 967.114 253.003C968.481 253.003 969.619 253.313 970.528 253.934C971.446 254.546 972.161 255.405 972.674 256.511H972.89C973.42 255.441 974.217 254.591 975.278 253.961C976.34 253.322 977.613 253.003 979.097 253.003C980.95 253.003 982.466 253.583 983.645 254.744C984.823 255.895 985.412 257.69 985.412 260.128V274H982.228V260.128C982.228 258.598 981.809 257.505 980.973 256.849C980.136 256.192 979.151 255.864 978.017 255.864C976.56 255.864 975.431 256.304 974.63 257.186C973.83 258.059 973.429 259.165 973.429 260.506V274H970.191V259.804C970.191 258.625 969.808 257.676 969.044 256.957C968.279 256.228 967.294 255.864 966.088 255.864C965.261 255.864 964.487 256.084 963.767 256.525C963.057 256.966 962.481 257.577 962.04 258.36C961.608 259.134 961.392 260.029 961.392 261.045V274H958.208ZM999.925 274.432C997.928 274.432 996.205 273.991 994.757 273.109C993.318 272.219 992.207 270.977 991.424 269.385C990.65 267.784 990.263 265.921 990.263 263.798C990.263 261.675 990.65 259.804 991.424 258.185C992.207 256.556 993.295 255.288 994.69 254.379C996.093 253.462 997.73 253.003 999.602 253.003C1000.68 253.003 1001.75 253.183 1002.8 253.543C1003.85 253.902 1004.81 254.487 1005.67 255.297C1006.54 256.098 1007.23 257.159 1007.74 258.482C1008.25 259.804 1008.51 261.432 1008.51 263.366V264.716H992.531V261.963H1005.27C1005.27 260.794 1005.04 259.75 1004.57 258.832C1004.11 257.915 1003.45 257.191 1002.6 256.66C1001.75 256.129 1000.75 255.864 999.602 255.864C998.333 255.864 997.236 256.179 996.309 256.808C995.391 257.429 994.685 258.239 994.19 259.237C993.696 260.236 993.448 261.306 993.448 262.449V264.284C993.448 265.849 993.718 267.176 994.258 268.265C994.807 269.344 995.567 270.168 996.538 270.734C997.51 271.292 998.639 271.571 999.925 271.571C1000.76 271.571 1001.52 271.454 1002.19 271.22C1002.88 270.977 1003.47 270.617 1003.96 270.141C1004.46 269.655 1004.84 269.052 1005.11 268.332L1008.18 269.196C1007.86 270.24 1007.32 271.157 1006.55 271.949C1005.79 272.732 1004.84 273.343 1003.72 273.784C1002.59 274.216 1001.33 274.432 999.925 274.432ZM1016.54 261.531V274H1013.35V253.273H1016.43V256.511H1016.7C1017.18 255.459 1017.92 254.613 1018.91 253.974C1019.9 253.327 1021.18 253.003 1022.74 253.003C1024.15 253.003 1025.38 253.291 1026.43 253.866C1027.48 254.433 1028.3 255.297 1028.88 256.457C1029.47 257.609 1029.76 259.066 1029.76 260.83V274H1026.58V261.045C1026.58 259.417 1026.15 258.149 1025.31 257.24C1024.46 256.322 1023.3 255.864 1021.83 255.864C1020.81 255.864 1019.9 256.084 1019.1 256.525C1018.31 256.966 1017.68 257.609 1017.23 258.455C1016.77 259.3 1016.54 260.326 1016.54 261.531ZM1044.59 253.273V255.972H1033.85V253.273H1044.59ZM1036.98 248.307H1040.17V268.062C1040.17 268.962 1040.3 269.637 1040.56 270.087C1040.83 270.527 1041.17 270.824 1041.59 270.977C1042.01 271.121 1042.45 271.193 1042.92 271.193C1043.27 271.193 1043.56 271.175 1043.79 271.139C1044.01 271.094 1044.19 271.058 1044.33 271.031L1044.97 273.892C1044.76 273.973 1044.46 274.054 1044.07 274.135C1043.68 274.225 1043.19 274.27 1042.6 274.27C1041.7 274.27 1040.82 274.076 1039.95 273.69C1039.1 273.303 1038.39 272.714 1037.82 271.922C1037.26 271.13 1036.98 270.132 1036.98 268.926V248.307Z" fill="white"/>
<defs>
<filter id="filter0_d_3_46" x="416" y="0" width="258" height="68" filterUnits="userSpaceOnUse" color-interpolation-filters="sRGB">
<feFlood flood-opacity="0" result="BackgroundImageFix"/>
<feColorMatrix in="SourceAlpha" type="matrix" values="0 0 0 0 0 0 0 0 0 0 0 0 0 0 0 0 0 0 127 0" result="hardAlpha"/>
<feOffset/>
<feGaussianBlur stdDeviation="2"/>
<feColorMatrix type="matrix" values="0 0 0 0 0 0 0 0 0 0 0 0 0 0 0 0 0 0 0.25 0"/>
<feBlend mode="normal" in2="BackgroundImageFix" result="effect1_dropShadow_3_46"/>
<feBlend mode="normal" in="SourceGraphic" in2="effect1_dropShadow_3_46" result="shape"/>
</filter>
<filter id="filter1_d_3_46" x="14" y="226" width="258" height="68" filterUnits="userSpaceOnUse" color-interpolation-filters="sRGB">
<feFlood flood-opacity="0" result="BackgroundImageFix"/>
<feColorMatrix in="SourceAlpha" type="matrix" values="0 0 0 0 0 0 0 0 0 0 0 0 0 0 0 0 0 0 127 0" result="hardAlpha"/>
<feOffset/>
<feGaussianBlur stdDeviation="2"/>
<feColorMatrix type="matrix" values="0 0 0 0 0 0 0 0 0 0 0 0 0 0 0 0 0 0 0.25 0"/>
<feBlend mode="normal" in2="BackgroundImageFix" result="effect1_dropShadow_3_46"/>
<feBlend mode="normal" in="SourceGraphic" in2="effect1_dropShadow_3_46" result="shape"/>
</filter>
<filter id="filter2_d_3_46" x="416" y="226" width="258" height="68" filterUnits="userSpaceOnUse" color-interpolation-filters="sRGB">
<feFlood flood-opacity="0" result="BackgroundImageFix"/>
<feColorMatrix in="SourceAlpha" type="matrix" values="0 0 0 0 0 0 0 0 0 0 0 0 0 0 0 0 0 0 127 0" result="hardAlpha"/>
<feOffset/>
<feGaussianBlur stdDeviation="2"/>
<feColorMatrix type="matrix" values="0 0 0 0 0 0 0 0 0 0 0 0 0 0 0 0 0 0 0.25 0"/>
<feBlend mode="normal" in2="BackgroundImageFix" result="effect1_dropShadow_3_46"/>
<feBlend mode="normal" in="SourceGraphic" in2="effect1_dropShadow_3_46" result="shape"/>
</filter>
<filter id="filter3_d_3_46" x="818" y="226" width="258" height="68" filterUnits="userSpaceOnUse" color-interpolation-filters="sRGB">
<feFlood flood-opacity="0" result="BackgroundImageFix"/>
<feColorMatrix in="SourceAlpha" type="matrix" values="0 0 0 0 0 0 0 0 0 0 0 0 0 0 0 0 0 0 127 0" result="hardAlpha"/>
<feOffset/>
<feGaussianBlur stdDeviation="2"/>
<feColorMatrix type="matrix" values="0 0 0 0 0 0 0 0 0 0 0 0 0 0 0 0 0 0 0.25 0"/>
<feBlend mode="normal" in2="BackgroundImageFix" result="effect1_dropShadow_3_46"/>
<feBlend mode="normal" in="SourceGraphic" in2="effect1_dropShadow_3_46" result="shape"/>
</filter>
</defs>
</svg>
