<svg width="80" height="80" viewBox="0 0 80 80" fill="none" xmlns="http://www.w3.org/2000/svg">
<rect width="80" height="80" fill="#009CC4"/>
<g clip-path="url(#clip0_101_110)">
<path d="M34.4686 48.1817H31.2817C30.8503 48.1817 30.5005 47.8433 30.5005 47.4259C30.5005 47.0085 30.8503 46.67 31.2817 46.67H34.4686C34.9 46.67 35.2499 47.0085 35.2499 47.4259C35.2499 47.8433 34.9 48.1817 34.4686 48.1817Z" fill="#FFF8F8"/>
<path d="M44.7184 48.1817H41.5315C41.1001 48.1817 40.7502 47.8433 40.7502 47.4259C40.7502 47.0085 41.1 46.67 41.5315 46.67H44.7184C45.1498 46.67 45.4996 47.0085 45.4996 47.4259C45.4996 47.8433 45.1498 48.1817 44.7184 48.1817Z" fill="#FFF8F8"/>
<path d="M37.9858 48.1816C37.6599 48.1816 37.3597 47.9778 37.2504 47.6803C37.1426 47.3869 37.2344 47.051 37.4805 46.8496C37.7373 46.6394 38.1119 46.6141 38.3978 46.7843C38.6713 46.9472 38.8142 47.2686 38.7515 47.5731C38.6796 47.9224 38.354 48.1816 37.9858 48.1816Z" fill="#FFF8F8"/>
<path d="M42.5345 51.1598H33.4656C33.0342 51.1598 32.6843 50.8213 32.6843 50.4039C32.6843 49.9865 33.0341 49.648 33.4656 49.648H42.5345C42.966 49.648 43.3158 49.9865 43.3158 50.4039C43.3158 50.8213 42.966 51.1598 42.5345 51.1598Z" fill="#FFF8F8"/>
<path d="M41.322 38.8708C42.3717 37.9773 43.0353 36.6685 43.0353 35.2125C43.0353 32.526 40.7765 30.3405 38.0001 30.3405C35.2237 30.3405 32.965 32.526 32.965 35.2125C32.965 36.6685 33.6285 37.9773 34.6782 38.8708C32.9045 39.5262 31.6414 41.1899 31.6414 43.1336V44.4296C31.6414 44.847 31.9911 45.1855 32.4226 45.1855H43.5777C44.0091 45.1855 44.3589 44.847 44.3589 44.4296V43.1336C44.3589 41.1899 43.0957 39.5262 41.322 38.8708ZM38.0001 31.8523C39.915 31.8523 41.4728 33.3596 41.4728 35.2125C41.4728 37.0653 39.915 38.5726 38.0001 38.5726C36.0853 38.5726 34.5274 37.0653 34.5274 35.2125C34.5274 33.3596 36.0852 31.8523 38.0001 31.8523ZM42.7964 43.6736H33.2038V43.1336C33.2038 41.4522 34.6175 40.0843 36.3552 40.0843H39.6449C41.3826 40.0843 42.7964 41.4522 42.7964 43.1336V43.6736H42.7964Z" fill="#FFF8F8"/>
<path d="M27.4301 58.8943C26.8297 58.8943 26.2364 58.7115 25.7288 58.3546C24.8971 57.77 24.4536 56.8292 24.5425 55.8381L25.428 45.9632L18.7135 38.478C18.0396 37.7268 17.8269 36.7136 18.1447 35.7676C18.4622 34.8216 19.2498 34.1229 20.2512 33.8984L30.2301 31.6619L35.5118 23.1692C36.0419 22.317 36.9721 21.8081 38 21.8081C39.028 21.8081 39.9581 22.3169 40.4882 23.1692L45.7698 31.6619L55.7488 33.8984C56.7502 34.1229 57.5376 34.8216 57.8553 35.7676C58.1731 36.7137 57.9605 37.7269 57.2866 38.478L50.572 45.9632L51.4575 55.8382C51.5464 56.8292 51.1029 57.77 50.2712 58.3546C49.4395 58.9392 48.3778 59.0565 47.4315 58.6686L38 54.802L28.5685 58.6686C28.1998 58.8198 27.8134 58.8943 27.4301 58.8943ZM38 23.3199C37.5251 23.3199 37.0954 23.555 36.8505 23.9488L31.3982 32.7158C31.2891 32.8911 31.1112 33.0162 30.9051 33.0624L20.6038 35.3712C20.1412 35.4749 19.7773 35.7977 19.6306 36.2348C19.4839 36.6719 19.5821 37.1401 19.8934 37.4872L26.825 45.2142C26.9637 45.3688 27.0316 45.5711 27.0133 45.775L26.0991 55.9689C26.058 56.4269 26.263 56.8615 26.6472 57.1316C27.0312 57.4016 27.5216 57.456 27.9589 57.2766L37.6952 53.285C37.89 53.2052 38.1098 53.2052 38.3047 53.285L48.0409 57.2766C48.4781 57.4558 48.9684 57.4016 49.3527 57.1316C49.737 56.8615 49.9419 56.4269 49.9007 55.969L48.9865 45.775C48.9683 45.5711 49.0362 45.3688 49.1748 45.2142L56.1065 37.4872C56.4178 37.1401 56.516 36.6719 56.3692 36.2348C56.2224 35.7977 55.8586 35.4749 55.396 35.3712L45.0947 33.0625C44.8886 33.0163 44.7107 32.8912 44.6016 32.7158L39.1493 23.9488C38.9045 23.555 38.4749 23.3199 38 23.3199Z" fill="#FFF8F8"/>
</g>
<defs>
<clipPath id="clip0_101_110">
<rect width="40" height="38.7014" fill="white" transform="translate(18 21)"/>
</clipPath>
</defs>
</svg>
