<svg width="80" height="80" viewBox="0 0 80 80" fill="none" xmlns="http://www.w3.org/2000/svg">
<rect width="80" height="80" fill="#009CC4"/>
<g clip-path="url(#clip0_101_100)">
<path d="M43.8472 25.2854C43.8472 27.4507 42.0918 29.2061 39.9264 29.2061C37.761 29.2061 36.0056 27.4507 36.0056 25.2854C36.0056 23.12 37.761 21.3646 39.9264 21.3646C42.0918 21.3646 43.8472 23.12 43.8472 25.2854Z" stroke="white" stroke-width="1.5"/>
<path d="M51.7699 37.9616L51.7705 37.9618L56.1235 38.8698C56.1236 38.8698 56.1236 38.8698 56.1237 38.8698C57.6312 39.185 58.6137 40.6841 58.2994 42.1992L57.2045 47.4212L57.2042 47.4229C56.8921 48.929 55.3928 49.9097 53.8848 49.5961C53.8846 49.596 53.8844 49.596 53.8841 49.5959L52.4843 49.3026L51.9953 49.2001L51.7123 49.6119C49.7263 52.5029 45.2948 54.6355 40.0004 54.6355C36.5524 54.6355 33.3382 53.7452 30.9343 52.1696L30.9339 52.1693C29.7865 51.4183 28.9066 50.5508 28.2777 49.6214L27.9956 49.2046L27.5029 49.3077L26.1247 49.596C26.1247 49.5961 26.1246 49.5961 26.1246 49.5961C24.6154 49.9113 23.1156 48.9295 22.8035 47.4229L22.8032 47.4214L21.7098 42.1985C21.7098 42.1984 21.7098 42.1983 21.7098 42.1982C21.3943 40.6835 22.3766 39.1849 23.8823 38.8698C23.8824 38.8698 23.8825 38.8698 23.8826 38.8698L28.2387 37.9618L28.2393 37.9617C29.4021 37.7184 30.5625 38.2532 31.1784 39.2187L31.5454 39.7941L32.1527 39.4829C32.8737 39.1134 33.6354 38.7963 34.4467 38.5378L34.9691 38.3714V37.8232V35.2209C34.9691 33.6756 36.2307 32.4107 37.7775 32.4107H42.2286C43.7657 32.4107 45.0332 33.6761 45.0318 35.2203V35.2209V37.8095V38.3563L45.5524 38.5236C46.3757 38.7882 47.1461 39.1058 47.8595 39.4723L48.466 39.7838L48.8337 39.2097C49.4487 38.2497 50.6072 37.7181 51.7699 37.9616ZM29.4199 48.9044L28.1823 49.164L29.0036 50.1255C29.5671 50.7851 30.2623 51.3924 31.0887 51.9324C33.4879 53.5125 36.6591 54.352 39.9986 54.352C44.6623 54.352 48.8384 52.699 51.0117 50.1258L51.8229 49.1653L50.5924 48.9077L49.5265 48.6846L49.5254 48.6844C48.0173 48.3709 47.0363 46.8729 47.3485 45.3613C47.3485 45.3608 47.3486 45.3604 47.3487 45.36L48.3423 40.6118L48.4576 40.0611L47.9611 39.7963C47.3586 39.475 46.7132 39.1944 46.0317 38.9517L45.0301 38.5949V39.6582V40.5594C45.0301 42.0997 43.7651 43.3662 42.2267 43.3662H37.7757C36.2313 43.3662 34.9672 42.1004 34.9672 40.5594V39.7029V38.6356L33.9631 38.9972C33.2896 39.2398 32.655 39.5244 32.0512 39.849L31.5576 40.1143L31.6721 40.6629L32.6523 45.3594L32.6523 45.3595C32.9676 46.87 31.9863 48.3689 30.477 48.6826L30.4756 48.6829L29.4199 48.9044Z" stroke="white" stroke-width="1.5"/>
<path d="M59.25 31.4256C59.25 33.591 57.4946 35.3464 55.3292 35.3464C53.1638 35.3464 51.4084 33.591 51.4084 31.4256C51.4084 29.2602 53.1638 27.5048 55.3292 27.5048C57.4946 27.5048 59.25 29.2602 59.25 31.4256Z" stroke="white" stroke-width="1.5"/>
<path d="M23.8686 27.5867L23.8684 27.5867C21.7506 28.029 20.3903 30.1068 20.8341 32.2262L20.8342 32.2268C21.2766 34.3475 23.3541 35.7067 25.4758 35.2643L23.8686 27.5867ZM23.8686 27.5867C25.9905 27.143 28.0658 28.502 28.5135 30.6208M23.8686 27.5867L28.5135 30.6208M28.5135 30.6208C28.9512 32.7426 27.5951 34.8205 25.476 35.2642L28.5135 30.6208Z" stroke="white" stroke-width="1.5"/>
</g>
<defs>
<clipPath id="clip0_101_100">
<rect width="40" height="40" fill="white" transform="translate(20 18)"/>
</clipPath>
</defs>
</svg>
