<svg width="80" height="80" viewBox="0 0 80 80" fill="none" xmlns="http://www.w3.org/2000/svg">
<rect width="80" height="80" fill="#009CC4"/>
<path d="M40.5222 41.8303C40.4482 41.8142 40.3723 41.8114 40.2973 41.8226C39.5461 41.7351 38.9794 41.0995 38.9781 40.3434C38.9781 39.9811 38.6843 39.6873 38.322 39.6873C37.9596 39.6873 37.6658 39.9811 37.6658 40.3434C37.6678 41.606 38.5123 42.7119 39.7297 43.0461V43.7022C39.7297 44.0645 40.0234 44.3583 40.3858 44.3583C40.7481 44.3583 41.0419 44.0645 41.0419 43.7022V43.0858C42.447 42.7917 43.402 41.483 43.2543 40.0551C43.1063 38.6272 41.9034 37.5421 40.4678 37.5418C39.6451 37.5418 38.9781 36.8748 38.9781 36.0521C38.9781 35.2294 39.6451 34.5624 40.4678 34.5624C41.2905 34.5624 41.9575 35.2294 41.9575 36.0521C41.9575 36.4144 42.2513 36.7082 42.6136 36.7082C42.9759 36.7082 43.2697 36.4144 43.2697 36.0521C43.2678 34.7264 42.3391 33.583 41.0419 33.3094V32.7122C41.0419 32.3499 40.7481 32.0561 40.3858 32.0561C40.0234 32.0561 39.7297 32.3499 39.7297 32.7122V33.3495C38.3758 33.7192 37.5044 35.0336 37.6908 36.4247C37.8773 37.8157 39.0642 38.854 40.4678 38.8537C41.2796 38.8537 41.9418 39.5037 41.9565 40.3152C41.9716 41.1267 41.3334 41.8008 40.5222 41.8303Z" fill="#FFF7F7"/>
<path d="M30.9534 38.2482C30.9534 43.5029 35.213 47.7625 40.4677 47.7625C45.7224 47.7625 49.982 43.5029 49.982 38.2482C49.982 32.9935 45.7224 28.7339 40.4677 28.7339C35.2156 28.7397 30.9595 32.9961 30.9534 38.2482ZM40.4677 30.0461C44.9977 30.0461 48.6698 33.7182 48.6698 38.2482C48.6698 42.7782 44.9977 46.4503 40.4677 46.4503C35.9377 46.4503 32.2656 42.7782 32.2656 38.2482C32.2707 33.7204 35.9399 30.0512 40.4677 30.0461Z" fill="#FFF7F7"/>
<path d="M53.2165 49.3801L48.0769 51.8085C47.3673 50.4885 46.006 49.6485 44.508 49.6063L39.7633 49.4759C39.012 49.4544 38.2749 49.2641 37.6069 48.9191L37.1241 48.6689C34.6521 47.3803 31.7057 47.3835 29.2363 48.6772L29.2664 47.5834C29.2763 47.2211 28.9909 46.9193 28.6286 46.9094L23.4258 46.7662C23.0634 46.7563 22.762 47.0417 22.752 47.404L22.4378 58.8213C22.4278 59.1837 22.7133 59.4855 23.0756 59.4954L28.2784 59.6386H28.2963C28.6519 59.6386 28.9428 59.3557 28.9525 59.0004L28.9675 58.4542L30.3191 57.7305C30.8497 57.445 31.4699 57.3771 32.0495 57.5411L40.1208 59.8065C40.1349 59.8106 40.149 59.8138 40.1634 59.817C40.7468 59.9391 41.3414 60.0003 41.9373 60C43.1996 60.0006 44.4471 59.7286 45.5943 59.2019C45.6225 59.1891 45.6498 59.1741 45.6757 59.1571L57.3785 51.5874C57.67 51.3987 57.7642 51.0159 57.5934 50.7134C56.7246 49.1718 54.7976 48.5846 53.2165 49.3801ZM23.7676 58.2017L24.0457 48.096L27.9366 48.203L27.6585 58.3091L23.7676 58.2017ZM45.0033 58.03C43.5779 58.6733 41.986 58.8508 40.454 58.5378L32.4044 56.2782C31.4984 56.0223 30.5287 56.1283 29.6999 56.5739L29.0092 56.944L29.194 50.2249C31.3828 48.7691 34.1898 48.6195 36.5208 49.834L37.0036 50.0842C37.8475 50.5199 38.7782 50.7602 39.7274 50.7878L44.4724 50.9182C45.8051 50.9566 46.937 51.9055 47.2074 53.2114L40.1397 53.0163C39.7774 53.0063 39.4759 53.2921 39.4657 53.6541C39.4557 54.0164 39.7415 54.3182 40.1035 54.3282L47.9032 54.5428H47.9215C48.2768 54.5425 48.5674 54.2596 48.577 53.9046C48.585 53.6195 48.5638 53.3341 48.5135 53.0534L53.7852 50.5626C53.7903 50.5603 53.7955 50.5577 53.8006 50.5552C54.5483 50.1768 55.4524 50.3034 56.0675 50.8727L45.0033 58.03Z" fill="#FFF7F7"/>
<path d="M41.1238 26.8892V20.6561C41.1238 20.2938 40.83 20 40.4676 20C40.1053 20 39.8115 20.2938 39.8115 20.6561V26.8892C39.8115 27.2515 40.1053 27.5453 40.4676 27.5453C40.83 27.5453 41.1238 27.2515 41.1238 26.8892Z" fill="#FFF7F7"/>
<path d="M46.0447 26.8892V23.9367C46.0447 23.5743 45.7509 23.2805 45.3885 23.2805C45.0262 23.2805 44.7324 23.5743 44.7324 23.9367V26.8892C44.7324 27.2515 45.0262 27.5453 45.3885 27.5453C45.7509 27.5453 46.0447 27.2515 46.0447 26.8892Z" fill="#FFF7F7"/>
<path d="M36.2029 26.8892V23.9367C36.2029 23.5743 35.9091 23.2805 35.5467 23.2805C35.1844 23.2805 34.8906 23.5743 34.8906 23.9367V26.8892C34.8906 27.2515 35.1844 27.5453 35.5467 27.5453C35.9091 27.5453 36.2029 27.2515 36.2029 26.8892Z" fill="#FFF7F7"/>
</svg>
