<svg width="80" height="80" viewBox="0 0 80 80" fill="none" xmlns="http://www.w3.org/2000/svg">
<rect width="80" height="80" fill="#009CC4"/>
<path d="M58.75 53.125H54.0625C54.6425 53.1244 55.1985 52.8937 55.6086 52.4836C56.0187 52.0735 56.2494 51.5175 56.25 50.9375V50.3125C56.2494 49.7325 56.0187 49.1765 55.6086 48.7664C55.1985 48.3563 54.6425 48.1256 54.0625 48.125H52.543L50.8414 40.2922C50.7546 39.3604 50.3239 38.4943 49.6335 37.8626C48.943 37.2309 48.0421 36.8788 47.1062 36.875H43.75V36.25C43.7498 36.1767 43.7369 36.104 43.7117 36.0352C44.3159 35.4003 44.7295 34.6085 44.9055 33.75H45C45.4971 33.7493 45.9736 33.5516 46.3251 33.2001C46.6766 32.8486 46.8743 32.3721 46.875 31.875V27.8125C46.8731 26.0726 46.1811 24.4045 44.9508 23.1742C43.7205 21.9439 42.0524 21.2519 40.3125 21.25H39.6875C37.9476 21.2519 36.2795 21.9439 35.0492 23.1742C33.8189 24.4045 33.1269 26.0726 33.125 27.8125V31.875C33.1257 32.3721 33.3234 32.8486 33.6749 33.2001C34.0264 33.5516 34.5029 33.7493 35 33.75H35.0945C35.2705 34.6085 35.6841 35.4003 36.2883 36.0352C36.2631 36.104 36.2502 36.1767 36.25 36.25V36.875H32.8937C31.9579 36.8788 31.057 37.2309 30.3665 37.8626C29.6761 38.4943 29.2454 39.3604 29.1586 40.2922L27.7289 46.875H27.1875C27.0124 46.8749 26.8379 46.8961 26.668 46.9383L24.9344 43.4703C24.8602 43.322 24.7301 43.2091 24.5728 43.1567C24.4154 43.1042 24.2437 43.1164 24.0953 43.1906C23.947 43.2648 23.8341 43.3949 23.7817 43.5522C23.7292 43.7096 23.7414 43.8813 23.8156 44.0297L25.5875 47.5727C25.2098 47.9768 24.9998 48.5094 25 49.0625V50.9375C25.0006 51.5175 25.2313 52.0735 25.6414 52.4836C26.0515 52.8937 26.6075 53.1244 27.1875 53.125H21.25C21.0842 53.125 20.9253 53.1908 20.8081 53.3081C20.6908 53.4253 20.625 53.5842 20.625 53.75V56.25C20.625 56.4158 20.6908 56.5747 20.8081 56.6919C20.9253 56.8092 21.0842 56.875 21.25 56.875H21.875V58.125C21.875 58.2908 21.9408 58.4497 22.0581 58.5669C22.1753 58.6842 22.3342 58.75 22.5 58.75H57.5C57.6658 58.75 57.8247 58.6842 57.9419 58.5669C58.0592 58.4497 58.125 58.2908 58.125 58.125V56.875H58.75C58.9158 56.875 59.0747 56.8092 59.1919 56.6919C59.3092 56.5747 59.375 56.4158 59.375 56.25V53.75C59.375 53.5842 59.3092 53.4253 59.1919 53.3081C59.0747 53.1908 58.9158 53.125 58.75 53.125ZM52.1875 49.375H54.0625C54.3111 49.3752 54.5494 49.474 54.7252 49.6498C54.901 49.8256 54.9998 50.0639 55 50.3125V50.9375C54.9998 51.1861 54.901 51.4244 54.7252 51.6002C54.5494 51.776 54.3111 51.8748 54.0625 51.875H52.1875C51.9389 51.8748 51.7006 51.776 51.5248 51.6002C51.349 51.4244 51.2502 51.1861 51.25 50.9375V50.3125C51.2502 50.0639 51.349 49.8256 51.5248 49.6498C51.7006 49.474 51.9389 49.3752 52.1875 49.375ZM45.625 31.875C45.6248 32.0407 45.5589 32.1995 45.4417 32.3167C45.3245 32.4339 45.1657 32.4998 45 32.5V30H45.625V31.875ZM35 32.5C34.8343 32.4998 34.6755 32.4339 34.5583 32.3167C34.4411 32.1995 34.3752 32.0407 34.375 31.875V30H35V32.5ZM34.375 28.75V27.8125C34.3765 26.404 34.9366 25.0536 35.9326 24.0576C36.9286 23.0616 38.279 22.5015 39.6875 22.5H40.3125C41.721 22.5015 43.0714 23.0616 44.0674 24.0576C45.0634 25.0536 45.6235 26.404 45.625 27.8125V28.75H45V28.4375C45 28.318 44.9953 28.1984 44.9867 28.082C44.9792 27.9843 44.9489 27.8896 44.898 27.8058C44.8472 27.722 44.7774 27.6512 44.6942 27.5994C44.611 27.5475 44.5167 27.5159 44.4191 27.5072C44.3214 27.4985 44.2231 27.5129 44.132 27.5492C41.1539 28.7352 35.6797 28.75 35.625 28.75H34.375ZM36.25 32.8125V29.9906C37.6641 29.9555 41.1609 29.7891 43.75 29.0039V32.8125C43.7489 33.7239 43.3864 34.5976 42.742 35.242C42.0976 35.8864 41.2239 36.2489 40.3125 36.25H39.6875C38.7761 36.2489 37.9024 35.8864 37.258 35.242C36.6136 34.5976 36.2511 33.7239 36.25 32.8125ZM42.5 36.9562V37.5C42.5 38.5336 41.3789 39.375 40 39.375C38.6211 39.375 37.5 38.5336 37.5 37.5V36.9562C38.1736 37.3141 38.9248 37.5008 39.6875 37.5H40.3125C41.0752 37.5008 41.8264 37.3141 42.5 36.9562ZM30.3891 40.518C30.3952 40.4899 30.3994 40.4615 30.4016 40.4328C30.4524 39.8059 30.7367 39.2209 31.1982 38.7935C31.6597 38.3662 32.2648 38.1276 32.8937 38.125H36.3258C36.6742 39.55 38.1891 40.625 40 40.625C41.8109 40.625 43.3258 39.55 43.6742 38.125H47.1062C47.7352 38.1276 48.3403 38.3662 48.8018 38.7935C49.2633 39.2209 49.5476 39.8059 49.5984 40.4328C49.6006 40.4615 49.6048 40.4899 49.6109 40.518L51.3047 48.3117C50.9169 48.4831 50.5872 48.7634 50.3556 49.1186C50.124 49.4738 50.0005 49.8885 50 50.3125V50.9375C50.0006 51.5175 50.2313 52.0735 50.6414 52.4836C51.0515 52.8937 51.6075 53.1244 52.1875 53.125H49.375V43.4375C49.3744 42.8575 49.1437 42.3015 48.7336 41.8914C48.3235 41.4813 47.7675 41.2506 47.1875 41.25H32.8125C32.2325 41.2506 31.6765 41.4813 31.2664 41.8914C30.8563 42.3015 30.6256 42.8575 30.625 43.4375V53.125H27.8125C28.3925 53.1244 28.9485 52.8937 29.3586 52.4836C29.7687 52.0735 29.9994 51.5175 30 50.9375V49.0625C29.9999 48.6853 29.9022 48.3146 29.7164 47.9863C29.5307 47.658 29.2631 47.3834 28.9398 47.1891L30.3891 40.518ZM48.125 43.4375V53.125H31.875V43.4375C31.8752 43.1889 31.974 42.9506 32.1498 42.7748C32.3256 42.599 32.5639 42.5002 32.8125 42.5H47.1875C47.4361 42.5002 47.6744 42.599 47.8502 42.7748C48.026 42.9506 48.1248 43.1889 48.125 43.4375ZM26.25 50.9375V49.0625C26.2502 48.8139 26.349 48.5756 26.5248 48.3998C26.7006 48.224 26.9389 48.1252 27.1875 48.125H27.8125C28.0611 48.1252 28.2994 48.224 28.4752 48.3998C28.651 48.5756 28.7498 48.8139 28.75 49.0625V50.9375C28.7498 51.1861 28.651 51.4244 28.4752 51.6002C28.2994 51.776 28.0611 51.8748 27.8125 51.875H27.1875C26.9389 51.8748 26.7006 51.776 26.5248 51.6002C26.349 51.4244 26.2502 51.1861 26.25 50.9375ZM56.875 57.5H23.125V56.875H56.875V57.5ZM58.125 55.625H21.875V54.375H58.125V55.625Z" fill="white"/>
<path d="M40 46.25C39.5055 46.25 39.0222 46.3966 38.6111 46.6713C38.2 46.946 37.8795 47.3365 37.6903 47.7933C37.5011 48.2501 37.4516 48.7528 37.548 49.2377C37.6445 49.7227 37.8826 50.1681 38.2322 50.5178C38.5819 50.8674 39.0273 51.1055 39.5123 51.202C39.9972 51.2984 40.4999 51.2489 40.9567 51.0597C41.4135 50.8705 41.804 50.5501 42.0787 50.1389C42.3534 49.7278 42.5 49.2445 42.5 48.75C42.4993 48.0872 42.2356 47.4517 41.7669 46.9831C41.2983 46.5144 40.6628 46.2507 40 46.25ZM40 50C39.7528 50 39.5111 49.9267 39.3055 49.7893C39.1 49.652 38.9398 49.4568 38.8452 49.2284C38.7505 48.9999 38.7258 48.7486 38.774 48.5061C38.8223 48.2637 38.9413 48.0409 39.1161 47.8661C39.2909 47.6913 39.5137 47.5723 39.7561 47.524C39.9986 47.4758 40.2499 47.5005 40.4784 47.5952C40.7068 47.6898 40.902 47.85 41.0393 48.0555C41.1767 48.2611 41.25 48.5028 41.25 48.75C41.2496 49.0814 41.1178 49.3991 40.8835 49.6335C40.6491 49.8678 40.3314 49.9996 40 50Z" fill="white"/>
<path d="M38.125 31.875C38.4702 31.875 38.75 31.5952 38.75 31.25C38.75 30.9048 38.4702 30.625 38.125 30.625C37.7798 30.625 37.5 30.9048 37.5 31.25C37.5 31.5952 37.7798 31.875 38.125 31.875Z" fill="white"/>
<path d="M41.875 31.875C42.2202 31.875 42.5 31.5952 42.5 31.25C42.5 30.9048 42.2202 30.625 41.875 30.625C41.5298 30.625 41.25 30.9048 41.25 31.25C41.25 31.5952 41.5298 31.875 41.875 31.875Z" fill="white"/>
<path d="M39.375 35H40.625C40.7908 35 40.9497 34.9342 41.0669 34.8169C41.1842 34.6997 41.25 34.5408 41.25 34.375C41.25 34.2092 41.1842 34.0503 41.0669 33.9331C40.9497 33.8158 40.7908 33.75 40.625 33.75H39.375C39.2092 33.75 39.0503 33.8158 38.9331 33.9331C38.8158 34.0503 38.75 34.2092 38.75 34.375C38.75 34.5408 38.8158 34.6997 38.9331 34.8169C39.0503 34.9342 39.2092 35 39.375 35Z" fill="white"/>
</svg>
